<svg xmlns="http://www.w3.org/2000/svg" width="17" height="17" viewBox="0 0 17 17">
  <g id="Alert-Low" transform="translate(0.5 0.5)">
    <rect id="_16x16px_Null_Bounding_Box" data-name="16x16px Null Bounding Box" width="16" height="16" transform="translate(0 0)" fill="none"/>
    <path id="Union_20" data-name="Union 20" d="M889-1735a8.01,8.01,0,0,1,8-8,8.01,8.01,0,0,1,8,8,8.01,8.01,0,0,1-8,8A8.01,8.01,0,0,1,889-1735Zm2,0a6.006,6.006,0,0,0,6,6,6.006,6.006,0,0,0,6-6,6.006,6.006,0,0,0-6-6A6.006,6.006,0,0,0,891-1735Zm5,3a1,1,0,0,1,1-1,1,1,0,0,1,1,1,1,1,0,0,1-1,1A1,1,0,0,1,896-1732Zm0-3v-3a1,1,0,0,1,1-1,1,1,0,0,1,1,1v3a1,1,0,0,1-1,1A1,1,0,0,1,896-1735Z" transform="translate(-889 1743)" fill="#fff" stroke="rgba(0,0,0,0)" stroke-miterlimit="10" stroke-width="1"/>
  </g>
</svg>
