<?xml version="1.0" encoding="utf-8"?>
<!-- Generator: Adobe Illustrator 28.0.0, SVG Export Plug-In . SVG Version: 6.00 Build 0)  -->
<svg version="1.1" id="card-front" xmlns="http://www.w3.org/2000/svg" xmlns:xlink="http://www.w3.org/1999/xlink" x="0px" y="0px"
	 viewBox="0 0 48 48" style="enable-background:new 0 0 48 48;" xml:space="preserve">
<style type="text/css">
	.st0{fill:none;stroke:#2E1A47;stroke-width:2;stroke-miterlimit:10;}
</style>
<path class="st0" d="M47,24v11.2774c0,2.4484-2.0032,4.4516-4.4516,4.4516H5.4516C3.0032,39.729,1,37.7258,1,35.2774V12.7226
	C1,10.2742,3.0032,8.271,5.4516,8.271h37.0968C44.9968,8.271,47,10.2742,47,12.7226v5.1935"/>
<line class="st0" x1="6.9355" y1="31.9346" x2="41.0645" y2="31.9346"/>
<path class="st0" d="M13.7268,25.9991h-5.083c-0.5523,0-1-0.4477-1-1v-5.083c0-0.5523,0.4477-1,1-1h5.083c0.5523,0,1,0.4477,1,1
	v5.083C14.7268,25.5514,14.279,25.9991,13.7268,25.9991z"/>
</svg>
