<svg xmlns="http://www.w3.org/2000/svg" width="24" height="21.333" viewBox="0 0 24 21.333">
  <path id="ic_directions_car_24px" d="M24.227,6.347A1.992,1.992,0,0,0,22.333,5H7.667A2,2,0,0,0,5.773,6.347L3,14.333V25a1.337,1.337,0,0,0,1.333,1.333H5.667A1.337,1.337,0,0,0,7,25V23.667H23V25a1.337,1.337,0,0,0,1.333,1.333h1.333A1.337,1.337,0,0,0,27,25V14.333ZM7.667,19.667a2,2,0,1,1,2-2A2,2,0,0,1,7.667,19.667Zm14.667,0a2,2,0,1,1,2-2A2,2,0,0,1,22.333,19.667ZM5.667,13l2-6H22.333l2,6Z" transform="translate(-3 -5)" fill="#707070"/>
</svg>
