<?xml version="1.0" encoding="UTF-8"?><svg id="Layer_2" xmlns="http://www.w3.org/2000/svg" viewBox="0 0 517.9 531.27"><defs><style>.cls-1{fill:#AFABC9;}</style></defs><g id="half-tone-3"><path class="cls-1" d="M200.37,206.36c-7.84-.02-14.19-6.37-14.17-14.18,.02-7.77,6.47-14.19,14.24-14.17,7.81,.02,14.12,6.38,14.11,14.24-.01,7.89-6.27,14.12-14.18,14.11Z"/><path class="cls-1" d="M224.36,163.55c-7.07-.02-12.79-5.75-12.79-12.83,0-7.08,5.69-12.82,12.77-12.87,7.14-.05,13.01,5.84,12.93,12.97-.08,7.09-5.82,12.75-12.91,12.74Z"/><path class="cls-1" d="M155.34,201.07c.01-6.78,5.38-12.14,12.16-12.16,6.74-.01,12.22,5.39,12.29,12.1,.06,6.72-5.63,12.41-12.35,12.35-6.71-.06-12.11-5.55-12.1-12.29Z"/><path class="cls-1" d="M257.12,153.96c-6.74,.03-12.25-5.42-12.26-12.13,0-6.69,5.56-12.23,12.23-12.2,6.63,.04,12.05,5.43,12.1,12.06,.05,6.79-5.31,12.24-12.07,12.27Z"/><path class="cls-1" d="M179.77,159.22c.05-6.52,5.23-11.64,11.77-11.64,6.59,0,11.88,5.33,11.82,11.89-.07,6.41-5.41,11.7-11.82,11.7-6.56,0-11.81-5.34-11.76-11.95Z"/><path class="cls-1" d="M148.21,168.15c.03-5.81,4.79-10.45,10.62-10.37,5.7,.08,10.3,4.79,10.26,10.5-.04,5.72-4.67,10.35-10.39,10.38-5.81,.03-10.52-4.7-10.49-10.51Z"/><path class="cls-1" d="M299.93,133.22c-.02,5.56-4.59,10.09-10.1,10.01-5.42-.07-9.9-4.56-9.95-9.98-.06-5.52,4.47-10.07,10.04-10.08,5.59-.01,10.04,4.45,10.02,10.04Z"/><path class="cls-1" d="M126.12,186.72c-5.39,.05-9.65-4.09-9.73-9.46-.08-5.44,4.24-9.85,9.64-9.84,5.27,.01,9.63,4.35,9.66,9.62,.03,5.31-4.24,9.62-9.56,9.67Z"/><path class="cls-1" d="M332.2,124.57c-.14,5.24-4.5,9.35-9.72,9.17-5.1-.18-9.19-4.48-9.11-9.59,.08-5.22,4.38-9.35,9.65-9.25,5.27,.1,9.33,4.37,9.18,9.67Z"/><path class="cls-1" d="M355.35,124.2c-4.73-.04-8.48-3.88-8.44-8.63,.04-4.71,3.94-8.54,8.63-8.47,4.7,.06,8.55,4,8.47,8.67-.08,4.73-3.93,8.49-8.67,8.44Z"/><path class="cls-1" d="M432.8,303.54c.02-4.5,3.58-8.04,8.08-8.05,4.47,0,8.11,3.58,8.17,8.02,.06,4.45-3.81,8.31-8.26,8.23-4.45-.08-8-3.73-7.99-8.2Z"/><path class="cls-1" d="M85.23,185.84c-.05-4.46,3.37-7.96,7.81-7.99,4.43-.03,8,3.43,8.06,7.81,.05,4.32-3.54,8-7.87,8.06-4.36,.06-7.95-3.47-7.99-7.87Z"/><path class="cls-1" d="M388.24,99.7c3.96-.04,7.18,3.14,7.16,7.1-.01,3.86-3.12,6.99-6.99,7.05-3.95,.06-7.19-3.16-7.17-7.11,.03-3.87,3.14-7,6.99-7.04Z"/><path class="cls-1" d="M420.87,93.45c2.45-.05,4.48,1.86,4.58,4.3,.1,2.49-2.01,4.66-4.5,4.64-2.43-.02-4.41-2.01-4.43-4.45-.02-2.45,1.91-4.44,4.36-4.49Z"/><path class="cls-1" d="M60.6,199.08c-2.45,.06-4.48-1.84-4.57-4.28-.09-2.54,1.94-4.66,4.46-4.66,2.4,0,4.45,2.03,4.48,4.43,.03,2.42-1.94,4.45-4.37,4.51Z"/><path class="cls-1" d="M27.55,206.37c-1.77-.03-3.18-1.49-3.11-3.22,.07-1.71,1.64-3.14,3.33-3.05,1.65,.09,2.94,1.46,2.95,3.14,0,1.81-1.35,3.15-3.16,3.13Z"/><circle class="cls-1" cx="255.34" cy="528.91" r="2.36"/><circle class="cls-1" cx="288.04" cy="520.03" r="4.12"/><circle class="cls-1" cx="320.86" cy="511.39" r="4.12"/><circle class="cls-1" cx="353.8" cy="502.58" r="2.64"/><circle class="cls-1" cx="386.38" cy="493.69" r="2.36"/><circle class="cls-1" cx="419.26" cy="484.99" r="3.14"/><circle class="cls-1" cx="443.26" cy="443.53" r="4.61"/><circle class="cls-1" cx="410.37" cy="452.1" r="4.77"/><circle class="cls-1" cx="377.8" cy="460.99" r="4.12"/><circle class="cls-1" cx="344.86" cy="469.63" r="5.48"/><circle class="cls-1" cx="312.04" cy="478.57" r="5.48"/><circle class="cls-1" cx="279.33" cy="487.46" r="5.74"/><circle class="cls-1" cx="246.48" cy="496.05" r="6.09"/><circle class="cls-1" cx="213.84" cy="504.94" r="4.92"/><circle class="cls-1" cx="181" cy="513.62" r="1.64"/><circle class="cls-1" cx="139.48" cy="489.54" r="4.3"/><circle class="cls-1" cx="172.05" cy="480.97" r="5.06"/><circle class="cls-1" cx="205" cy="472.03" r="5.48"/><circle class="cls-1" cx="237.89" cy="463.14" r="7.18"/><circle class="cls-1" cx="270.48" cy="454.55" r="8.3"/><circle class="cls-1" cx="303.34" cy="445.69" r="8.12"/><circle class="cls-1" cx="336" cy="437.03" r="7.57"/><circle class="cls-1" cx="368.87" cy="428.16" r="6.88"/><circle class="cls-1" cx="401.74" cy="419.47" r="6.67"/><circle class="cls-1" cx="434.43" cy="410.6" r="6.54"/><circle class="cls-1" cx="467.26" cy="401.77" r="4.12"/><circle class="cls-1" cx="500.13" cy="393.07" r="2.36"/><circle class="cls-1" cx="491.31" cy="360.24" r="3.77"/><circle class="cls-1" cx="458.39" cy="369.08" r="5.21"/><circle class="cls-1" cx="425.75" cy="377.72" r="7.25"/><circle class="cls-1" cx="392.85" cy="386.58" r="9.35"/><circle class="cls-1" cx="360.28" cy="395.47" r="10.52"/><circle class="cls-1" cx="327.33" cy="404.1" r="10.57"/><circle class="cls-1" cx="294.46" cy="412.99" r="11.24"/><circle class="cls-1" cx="261.87" cy="421.68" r="10.64"/><circle class="cls-1" cx="228.95" cy="430.52" r="8.55"/><circle class="cls-1" cx="196.09" cy="439.18" r="7.08"/><circle class="cls-1" cx="163.45" cy="448.06" r="7.08"/><circle class="cls-1" cx="130.55" cy="456.92" r="5.21"/><circle class="cls-1" cx="97.9" cy="465.56" r="3.77"/><circle class="cls-1" cx="89.07" cy="432.92" r="5.21"/><circle class="cls-1" cx="121.91" cy="424.08" r="6.32"/><circle class="cls-1" cx="154.58" cy="415.19" r="8.3"/><circle class="cls-1" cx="187.49" cy="406.5" r="9.59"/><circle class="cls-1" cx="220.06" cy="397.63" r="10.36"/><circle class="cls-1" cx="253" cy="388.99" r="12.27"/><circle class="cls-1" cx="285.89" cy="380.1" r="13.92"/><circle class="cls-1" cx="318.46" cy="371.53" r="13.71"/><circle class="cls-1" cx="351.33" cy="362.66" r="12.46"/><circle class="cls-1" cx="384.28" cy="353.7" r="10.57"/><circle class="cls-1" cx="416.85" cy="345.14" r="8.38"/><circle class="cls-1" cx="449.74" cy="336.25" r="6.67"/><circle class="cls-1" cx="482.38" cy="327.61" r="5.33"/><circle class="cls-1" cx="515.26" cy="318.73" r="2.64"/><circle class="cls-1" cx="506.37" cy="285.86" r="4.78"/><circle class="cls-1" cx="473.75" cy="294.69" r="5.85"/><circle class="cls-1" cx="408.24" cy="312.21" r="9.94"/><circle class="cls-1" cx="375.4" cy="321.13" r="11.79"/><circle class="cls-1" cx="342.45" cy="329.78" r="13.67"/><circle class="cls-1" cx="309.83" cy="338.6" r="15.2"/><circle class="cls-1" cx="277.01" cy="347.54" r="15.58"/><circle class="cls-1" cx="244.3" cy="356.12" r="14.34"/><circle class="cls-1" cx="211.48" cy="365.05" r="12.91"/><circle class="cls-1" cx="178.58" cy="373.65" r="11.85"/><circle class="cls-1" cx="145.96" cy="382.58" r="9.81"/><circle class="cls-1" cx="113.03" cy="391.2" r="6.88"/><circle class="cls-1" cx="80.17" cy="400.06" r="3.95"/><circle class="cls-1" cx="47.5" cy="408.91" r="3.36"/><circle class="cls-1" cx="38.61" cy="376.03" r="2.64"/><circle class="cls-1" cx="71.56" cy="367.21" r="4.12"/><circle class="cls-1" cx="104.43" cy="358.52" r="7.75"/><circle class="cls-1" cx="137.03" cy="349.64" r="10.72"/><circle class="cls-1" cx="169.9" cy="341.05" r="13.01"/><circle class="cls-1" cx="202.6" cy="332.17" r="14.67"/><circle class="cls-1" cx="235.43" cy="323.24" r="15.66"/><circle class="cls-1" cx="268.29" cy="314.66" r="15.85"/><circle class="cls-1" cx="300.93" cy="305.7" r="15.81"/><circle class="cls-1" cx="333.82" cy="297.13" r="15.15"/><circle class="cls-1" cx="366.5" cy="288.23" r="13.35"/><circle class="cls-1" cx="399.34" cy="279.61" r="11.1"/><circle class="cls-1" cx="432.28" cy="270.67" r="9.65"/><circle class="cls-1" cx="464.9" cy="261.83" r="7.57"/><circle class="cls-1" cx="497.75" cy="253.2" r="5.21"/><circle class="cls-1" cx="488.91" cy="220.28" r="3.77"/><circle class="cls-1" cx="456.29" cy="229.22" r="7.18"/><circle class="cls-1" cx="423.34" cy="237.85" r="10.03"/><circle class="cls-1" cx="390.47" cy="246.72" r="12.63"/><circle class="cls-1" cx="357.89" cy="255.62" r="14.87"/><circle class="cls-1" cx="324.96" cy="264.23" r="15.94"/><circle class="cls-1" cx="292.36" cy="273.13" r="16.04"/><circle class="cls-1" cx="259.43" cy="281.76" r="16"/><circle class="cls-1" cx="226.59" cy="290.6" r="16"/><circle class="cls-1" cx="193.9" cy="299.29" r="15.39"/><circle class="cls-1" cx="161.03" cy="308.16" r="13.76"/><circle class="cls-1" cx="128.4" cy="317.01" r="11.18"/><circle class="cls-1" cx="95.56" cy="325.63" r="7.93"/><circle class="cls-1" cx="62.63" cy="334.56" r="6.09"/><circle class="cls-1" cx="29.98" cy="343.21" r="3.57"/><circle class="cls-1" cx="21.16" cy="310.57" r="4.12"/><circle class="cls-1" cx="54.03" cy="301.68" r="6.32"/><circle class="cls-1" cx="86.67" cy="293.04" r="8.55"/><circle class="cls-1" cx="119.49" cy="284.1" r="11.04"/><circle class="cls-1" cx="152.39" cy="275.24" r="13.28"/><circle class="cls-1" cx="185.07" cy="266.64" r="14.87"/><circle class="cls-1" cx="217.9" cy="257.71" r="15.92"/><circle class="cls-1" cx="250.54" cy="249.08" r="16.38"/><circle class="cls-1" cx="283.42" cy="240.19" r="16.12"/><circle class="cls-1" cx="316.33" cy="231.58" r="15.72"/><circle class="cls-1" cx="349" cy="222.73" r="14.67"/><circle class="cls-1" cx="381.89" cy="213.86" r="12.46"/><circle class="cls-1" cx="414.46" cy="205.15" r="8.46"/><circle class="cls-1" cx="447.36" cy="196.29" r="5.85"/><circle class="cls-1" cx="480.22" cy="187.69" r="4.61"/><circle class="cls-1" cx="471.39" cy="154.75" r="4.61"/><circle class="cls-1" cx="438.52" cy="163.62" r="6.22"/><circle class="cls-1" cx="405.81" cy="172.34" r="8.38"/><circle class="cls-1" cx="372.94" cy="181.21" r="11.55"/><circle class="cls-1" cx="340.36" cy="189.79" r="13.23"/><circle class="cls-1" cx="307.42" cy="198.73" r="14.61"/><circle class="cls-1" cx="274.61" cy="207.54" r="15.58"/><circle class="cls-1" cx="241.95" cy="216.2" r="16"/><circle class="cls-1" cx="209.04" cy="225.11" r="15.49"/><circle class="cls-1" cx="176.37" cy="233.78" r="13.67"/><circle class="cls-1" cx="143.55" cy="242.6" r="10.72"/><circle class="cls-1" cx="110.66" cy="251.28" r="9.51"/><circle class="cls-1" cx="78" cy="260.15" r="8.3"/><circle class="cls-1" cx="45.11" cy="269.04" r="5.85"/><circle class="cls-1" cx="12.45" cy="277.69" r="2.36"/><circle class="cls-1" cx="3.57" cy="244.82" r="3.57"/><circle class="cls-1" cx="36.49" cy="236.15" r="4.93"/><circle class="cls-1" cx="69.16" cy="227.23" r="6.45"/><circle class="cls-1" cx="101.98" cy="218.59" r="8.46"/><circle class="cls-1" cx="134.64" cy="209.75" r="9.94"/><circle class="cls-1" cx="233.09" cy="183.3" r="14.87"/><circle class="cls-1" cx="265.95" cy="174.72" r="14.08"/><circle class="cls-1" cx="298.53" cy="165.86" r="12.5"/><circle class="cls-1" cx="331.45" cy="157.18" r="11.08"/><circle class="cls-1" cx="364.35" cy="148.32" r="10.24"/><circle class="cls-1" cx="396.93" cy="139.62" r="8.63"/><circle class="cls-1" cx="429.88" cy="130.81" r="5.33"/><circle class="cls-1" cx="462.76" cy="121.93" r="3.14"/><circle class="cls-1" cx="453.81" cy="89.3" r="2.64"/><circle class="cls-1" cx="412.36" cy="65.29" r="4.12"/><circle class="cls-1" cx="379.47" cy="73.88" r="3.77"/><circle class="cls-1" cx="346.79" cy="82.77" r="6.09"/><circle class="cls-1" cx="313.9" cy="91.63" r="8.2"/><circle class="cls-1" cx="281.03" cy="100.32" r="8.95"/><circle class="cls-1" cx="248.43" cy="109.2" r="10.15"/><circle class="cls-1" cx="215.5" cy="117.85" r="9.65"/><circle class="cls-1" cx="182.85" cy="126.66" r="8.64"/><circle class="cls-1" cx="150.04" cy="135.31" r="8.2"/><circle class="cls-1" cx="117.09" cy="144.26" r="7.67"/><circle class="cls-1" cx="84.52" cy="153.14" r="5.98"/><circle class="cls-1" cx="51.58" cy="161.77" r="4.61"/><circle class="cls-1" cx="18.76" cy="170.58" r="1.64"/><circle class="cls-1" cx="42.76" cy="129.13" r="3.14"/><circle class="cls-1" cx="75.61" cy="120.23" r="3.95"/><circle class="cls-1" cx="99.61" cy="78.7" r="2.03"/><circle class="cls-1" cx="123.95" cy="36.91" r="2.03"/><circle class="cls-1" cx="254.53" cy="2.03" r="2.03"/><circle class="cls-1" cx="108.52" cy="111.37" r="5.06"/><circle class="cls-1" cx="132.52" cy="69.79" r="3.57"/><circle class="cls-1" cx="156.24" cy="28.28" r="3.57"/><circle class="cls-1" cx="189.2" cy="19.48" r="3.57"/><circle class="cls-1" cx="141.09" cy="102.67" r="6.22"/><circle class="cls-1" cx="165.16" cy="61.15" r="4.61"/><circle class="cls-1" cx="174.02" cy="93.84" r="5.85"/><circle class="cls-1" cx="198.05" cy="52.26" r="4.3"/><circle class="cls-1" cx="206.92" cy="85.15" r="6.45"/><circle class="cls-1" cx="230.85" cy="43.46" r="4.3"/><circle class="cls-1" cx="239.55" cy="76.32" r="7.86"/><circle class="cls-1" cx="263.5" cy="34.81" r="5.21"/><circle class="cls-1" cx="272.45" cy="67.46" r="7.18"/><circle class="cls-1" cx="296.37" cy="25.94" r="2.64"/><circle class="cls-1" cx="222.18" cy="10.67" r="2.64"/><circle class="cls-1" cx="305.01" cy="58.75" r="5.06"/><circle class="cls-1" cx="329.02" cy="17.29" r="2.64"/><circle class="cls-1" cx="337.96" cy="49.94" r="3.57"/><circle class="cls-1" cx="370.84" cy="41.23" r="2.37"/></g></svg>