<?xml version="1.0" encoding="utf-8"?>
<!-- Generator: Adobe Illustrator 28.0.0, SVG Export Plug-In . SVG Version: 6.00 Build 0)  -->
<svg version="1.1" id="hand-money" xmlns="http://www.w3.org/2000/svg" xmlns:xlink="http://www.w3.org/1999/xlink" x="0px" y="0px"
	 viewBox="0 0 48 48" style="enable-background:new 0 0 48 48;" xml:space="preserve">
<style type="text/css">
	.st0{fill:none;stroke:#2E1A47;stroke-width:2;stroke-linecap:round;stroke-linejoin:round;}
	.st1{fill:none;stroke:#2E1A47;stroke-width:2;stroke-miterlimit:10;}
</style>
<path class="st0" d="M8.9387,33.571c0,0,4.0065-2.5226,5.4903-3.1161c2.7452-1.1129,5.7871-0.7419,8.6065,0l7.4935,2.0032l0,0
	c0,2.5226-1.7806,5.1194-4.3032,5.1194h-5.7129"/>
<path class="st0" d="M1,45.5903l5.1935-1.4097c1.7806-0.4452,3.5613-0.5194,5.3419-0.0742l10.5355,2.5968
	c2.2258,0.5935,4.6742,0.2968,6.6774-0.8903L47,35.3516l0,0c0-2.3-2.2258-4.0806-4.4516-3.4129l-12.7613,3.4129"/>
<line id="Line_2264" class="st0" x1="17.6405" y1="7.5165" x2="15.2851" y2="4.376"/>
<path id="Path_10358" class="st0" d="M23.9215,5.7107V1"/>
<path id="Path_10359" class="st0" d="M30.281,7.9091l2.4339-3.6901"/>
<path class="st0" d="M15.0496,19.1364c0-4.9463,4.0041-8.9504,8.9504-8.9504s8.9504,4.0041,8.9504,8.9504"/>
<path class="st1" d="M26.9306,18.0777c0-2.5226-6.4548-2.7452-5.8613,0.6677c0.2226,1.1871,1.4097,1.4097,2.8935,1.7065
	c1.4839,0.2968,2.7452,0.4452,2.9677,1.6323c0.5935,3.4129-5.8613,3.2645-5.8613,0.6677"/>
<line class="st1" x1="23.9629" y1="14.4762" x2="23.9629" y2="16.1827"/>
<line class="st1" x1="23.9629" y1="24.681" x2="23.9629" y2="26.3874"/>
</svg>
