<?xml version="1.0" encoding="utf-8"?>
<!-- Generator: Adobe Illustrator 27.3.1, SVG Export Plug-In . SVG Version: 6.00 Build 0)  -->
<svg version="1.1" id="handshake" xmlns="http://www.w3.org/2000/svg" xmlns:xlink="http://www.w3.org/1999/xlink" x="0px" y="0px"
	 viewBox="0 0 48 48" style="enable-background:new 0 0 48 48;" xml:space="preserve">
<style type="text/css">
	.st0{fill:none;stroke:#2E1A47;stroke-width:2;stroke-miterlimit:10;}
</style>
<path class="st0" d="M24.1,37.8L10.7,24.5c-1.1-1-1.5-0.3-2,0.2l-3.9,3.8c-0.7,0.8-0.6,1.2-0.1,1.7l13.7,13.4c0.5,0.5,1.3,0.5,1.8,0
	l4.3-4.3C24.9,38.9,24.8,38.4,24.1,37.8z"/>
<path class="st0" d="M6.2,27.3l-4.9-4.9l8.9-15.5c0.2-0.4,0.4-0.8,0.7-1.1C12,4.7,13.8,4.4,15.3,5l8.5,3.5L25,9.2"/>
<line class="st0" x1="25.5" y1="32.8" x2="33.3" y2="40.6"/>
<line class="st0" x1="28.9" y1="29.3" x2="36.6" y2="37.1"/>
<line class="st0" x1="32.5" y1="25.7" x2="40.1" y2="33.4"/>
<line class="st0" x1="47.7" y1="23.5" x2="39.5" y2="25.7"/>
<path class="st0" d="M22.3,41.7l5.1,1.6c1.5,0.5,3.2,0,4.3-1.1l11.9-12.4L29.2,15.2l-6.7,1.9c-1.7,0.4-3.4-0.6-3.9-2.2l-0.5-1.5
	l8-4.9c0.1-0.1,0.3-0.1,0.4-0.2L43.1,4c0.8-0.2,1.6-0.2,2.3,0.2c1,0.4,1.6,1.2,1.6,2.2v10.8"/>
<line class="st0" x1="7.7" y1="33.3" x2="13.6" y2="27.4"/>
<line class="st0" x1="11.6" y1="37.1" x2="17.5" y2="31.3"/>
<line class="st0" x1="15.5" y1="40.9" x2="21.4" y2="35.1"/>
</svg>
