<?xml version="1.0" encoding="utf-8"?>
<!-- Generator: Adobe Illustrator 28.0.0, SVG Export Plug-In . SVG Version: 6.00 Build 0)  -->
<svg version="1.1" id="home-tree" xmlns="http://www.w3.org/2000/svg" xmlns:xlink="http://www.w3.org/1999/xlink" x="0px" y="0px"
	 viewBox="0 0 48 48" style="enable-background:new 0 0 48 48;" xml:space="preserve">
<style type="text/css">
	.st0{fill:none;stroke:#2E1A47;stroke-width:2;stroke-miterlimit:10;}
</style>
<path class="st0" d="M37.2042,14.6717v28.9621c0,1.8595-1.5074,3.3662-3.3662,3.3662h-8.5902V33.777
	c0-0.6688-0.5416-1.2103-1.2103-1.2103h-9.5439c-0.6688,0-1.2102,0.5415-1.2102,1.2103V47H4.6296
	c-1.8589,0-3.3663-1.5067-3.3663-3.3662V19.4705L19.1344,1.426l5.5532,5.6221"/>
<path class="st0" d="M43.7511,16.1535c0.3495-0.8391,0.5434-1.7601,0.5434-2.7259c0-3.9204-3.1775-7.0979-7.0972-7.0979
	c-3.9191,0-7.0966,3.1775-7.0966,7.0979c0,0.969,0.1951,1.8937,0.5466,2.7354c-1.831,1.7373-2.9754,4.1921-2.9754,6.9155
	c0,5.2643,4.2681,9.5318,9.5324,9.5318s9.5325-4.2674,9.5325-9.5318C46.7367,20.3501,45.5877,17.8908,43.7511,16.1535z"/>
<line class="st0" x1="37.2042" y1="25.4539" x2="42.0948" y2="22.6664"/>
</svg>
