<svg xmlns="http://www.w3.org/2000/svg" width="47" height="47" viewBox="0 0 47 47">
  <g id="Group_19834" data-name="Group 19834" transform="translate(-291.9 -605.595)">
    <g id="Group_19258" data-name="Group 19258" transform="translate(69.074 -305)">
      <g id="Group_19253" data-name="Group 19253" transform="translate(226.925 911.595)">
        <g id="Group_19362" data-name="Group 19362" transform="translate(0 0)">
          <g id="Group_17136" data-name="Group 17136" transform="translate(0 0)">
            <g id="Group_14582" data-name="Group 14582" transform="translate(0 0)">
              <path id="Union_87_-_Outline" data-name="Union 87 - Outline" d="M30.567,52.6a2.594,2.594,0,0,1-1.076-.234,54.193,54.193,0,0,1-9.374-5.635,30.4,30.4,0,0,1-6.186-6.041A13.422,13.422,0,0,1,11,32.743V15.554a2.64,2.64,0,0,1,1.852-2.539l16.937-5.3a2.569,2.569,0,0,1,1.554,0l16.933,5.29a2.645,2.645,0,0,1,1.851,2.542v2.39a1.324,1.324,0,1,1-2.648,0V15.554L30.568,10.27,13.652,15.562V32.743c0,2.626,1.4,6.812,8.053,11.847a52.315,52.315,0,0,0,8.863,5.332,52.179,52.179,0,0,0,8.863-5.333c6.656-5.034,8.053-9.22,8.053-11.846V23.877a1.324,1.324,0,1,1,2.648,0v8.866A13.42,13.42,0,0,1,47.2,40.685a30.4,30.4,0,0,1-6.186,6.041,55.062,55.062,0,0,1-9.372,5.635A2.6,2.6,0,0,1,30.567,52.6Z" transform="translate(-11.004 -7.596)" fill="#2e1a47"/>
            </g>
          </g>
          <g id="Group_19361" data-name="Group 19361" transform="translate(13.988 11.535)">
            <path id="Path_13358" data-name="Path 13358" d="M87.622,107.75A7.8,7.8,0,0,1,84.2,107a3.678,3.678,0,0,1-2.248-3.249H84.4c0,.5.491.856.9,1.064a5.183,5.183,0,0,0,4.78-.184,1.6,1.6,0,0,0,.627-1.725c-.132-.766-.957-1.033-3.37-1.446l.413-2.411a13.688,13.688,0,0,1,3.181.8,3.457,3.457,0,0,1,2.187,2.648A4.023,4.023,0,0,1,91.54,106.6,6.621,6.621,0,0,1,87.622,107.75Z" transform="translate(-81.956 -90.444)" fill="#2e1a47"/>
            <path id="Path_13359" data-name="Path 13359" d="M87.341,83.391a12.834,12.834,0,0,1-3.172-.824,3.5,3.5,0,0,1-2.141-2.658A4.023,4.023,0,0,1,83.612,75.8a7.611,7.611,0,0,1,7.336-.4A3.678,3.678,0,0,1,93.2,78.651H90.75c0-.5-.491-.856-.9-1.064a5.184,5.184,0,0,0-4.78.184A1.6,1.6,0,0,0,84.44,79.5c.14.813,1.091,1.1,3.314,1.484Z" transform="translate(-81.954 -72.377)" fill="#2e1a47"/>
            <path id="Line_2836" data-name="Line 2836" d="M1.446,3.732H-1V0H1.446Z" transform="translate(5.417 0)" fill="#2e1a47"/>
            <path id="Line_2837" data-name="Line 2837" d="M1.446,4.486H-1V0H1.446Z" transform="translate(5.417 15.84)" fill="#2e1a47"/>
          </g>
        </g>
      </g>
    </g>
    <rect id="Rectangle_5934" data-name="Rectangle 5934" width="47" height="47" transform="translate(291.9 605.595)" fill="none"/>
  </g>
</svg>
