<svg xmlns="http://www.w3.org/2000/svg" width="52" height="67.672" viewBox="0 0 52 67.672">
  <g id="Group_20590" data-name="Group 20590" transform="translate(-293 -3248.798)">
    <path id="Path_14057" data-name="Path 14057" d="M-4646.87-7799.354a1,1,0,0,1-.507-.138,1,1,0,0,1-.422-1.232l10.675-26.8-9.692,2.6a1,1,0,0,1-1.008-.3,1,1,0,0,1-.178-1.038l11.618-28.726a1,1,0,0,1,1.3-.552,1,1,0,0,1,.552,1.3l-10.866,26.865,9.68-2.594a1,1,0,0,1,1.006.3,1,1,0,0,1,.182,1.035l-9.012,22.622,26.082-31.934-10.827,2.9a1,1,0,0,1-1.032-.331,1,1,0,0,1-.125-1.076l10.44-21.219-11.644,3.12a1,1,0,0,1-1.225-.707,1,1,0,0,1,.707-1.225l13.773-3.69a1,1,0,0,1,1.032.331,1,1,0,0,1,.125,1.076l-10.44,21.219,11.692-3.132a1,1,0,0,1,1.1.423,1,1,0,0,1-.065,1.176l-32.147,39.36A1,1,0,0,1-4646.87-7799.354Z" transform="matrix(0.966, 0.259, -0.259, 0.966, 2765.848, 12044.187)" fill="#2e1a47"/>
    <rect id="Rectangle_6664" data-name="Rectangle 6664" width="52" height="52" transform="translate(293 3255.826)" fill="none"/>
  </g>
</svg>
