<svg id="instagram" xmlns="http://www.w3.org/2000/svg" width="24" height="24.614" viewBox="0 0 24 24.614">
  <path id="Path_13" data-name="Path 13" d="M17.383,0H7.166A7.037,7.037,0,0,0,.2,6.966V17.648a6.937,6.937,0,0,0,6.966,6.966H17.228a6.937,6.937,0,0,0,6.966-6.966V6.966A6.808,6.808,0,0,0,17.383,0Zm5.109,17.8a5.031,5.031,0,0,1-1.548,3.715,5.406,5.406,0,0,1-3.715,1.548H7.166a5.031,5.031,0,0,1-3.715-1.548A5.406,5.406,0,0,1,1.9,17.8V6.966A5.031,5.031,0,0,1,3.451,3.251,5.031,5.031,0,0,1,7.166,1.7H17.228a5.031,5.031,0,0,1,3.715,1.548,5.031,5.031,0,0,1,1.548,3.715Z" transform="translate(-0.2 0)" fill="#ffffff"/>
  <path id="Path_14" data-name="Path 14" d="M8.325,3.6A4.517,4.517,0,0,0,3.7,8.071a4.517,4.517,0,0,0,4.625,4.471,4.517,4.517,0,0,0,4.625-4.471A4.583,4.583,0,0,0,8.325,3.6Zm0,7.383A2.957,2.957,0,0,1,5.313,8.071a3.014,3.014,0,0,1,6.024,0A2.957,2.957,0,0,1,8.325,10.983Z" transform="translate(3.778 4.128)" fill="#ffffff"/>
</svg>
