<svg id="LinkedIn-Med" xmlns="http://www.w3.org/2000/svg" width="24" height="24" viewBox="0 0 24 24">
  <rect id="_24x24px_Null_Bounding_Box" data-name="24x24px Null Bounding Box" width="24" height="24" fill="none"/>
  <g id="Group_14937" data-name="Group 14937" transform="translate(-195 -4738)">
    <path id="Path_10855" data-name="Path 10855" d="M198,4742.5v15a1.5,1.5,0,0,0,1.5,1.5h15a1.5,1.5,0,0,0,1.5-1.5v-15a1.5,1.5,0,0,0-1.5-1.5h-15A1.5,1.5,0,0,0,198,4742.5Zm5.874,13.12h-2.6v-7.809h2.6Zm-1.3-8.876h-.016a1.483,1.483,0,1,1,.016,0Zm10.659,8.876h-2.6v-4.178c0-1.05-.376-1.766-1.315-1.766a1.422,1.422,0,0,0-1.332.949,1.77,1.77,0,0,0-.085.634v4.361h-2.6s.034-7.077,0-7.809h2.6v1.1a2.577,2.577,0,0,1,2.339-1.289c1.708,0,2.989,1.116,2.989,3.515Z" fill="#34363b"/>
  </g>
</svg>
