<?xml version="1.0" standalone="no"?>
<!DOCTYPE svg PUBLIC "-//W3C//DTD SVG 20010904//EN"
 "http://www.w3.org/TR/2001/REC-SVG-20010904/DTD/svg10.dtd">
<svg version="1.0" xmlns="http://www.w3.org/2000/svg"
 width="25.000000pt" height="25.000000pt" viewBox="0 0 25.000000 25.000000"
 preserveAspectRatio="xMidYMid meet">

<g transform="translate(0.000000,25.000000) scale(0.100000,-0.100000)"
fill="#000000" stroke="none">
<path d="M122 207 c-43 -44 -54 -81 -30 -105 21 -21 29 -13 23 20 -5 28 -1 38
29 67 22 21 40 31 51 28 24 -10 29 -36 11 -56 -20 -21 -20 -31 -3 -31 20 0 47
33 47 58 0 29 -34 62 -63 62 -14 0 -40 -17 -65 -43z"/>
<path d="M135 127 c6 -30 2 -37 -30 -66 -39 -34 -52 -35 -69 -8 -8 12 -6 21 7
35 20 22 22 32 4 32 -20 0 -47 -33 -47 -58 0 -28 34 -62 60 -62 32 0 110 78
110 109 0 26 -16 51 -32 51 -5 0 -6 -15 -3 -33z"/>
</g>
</svg>
