<svg id="linkedin-solid.svg" xmlns="http://www.w3.org/2000/svg" width="24" height="24" viewBox="0 0 24 24">
  <path id="Path_10" data-name="Path 10" d="M22.224,0H1.77A1.751,1.751,0,0,0,0,1.73V22.268A1.752,1.752,0,0,0,1.77,24H22.224A1.755,1.755,0,0,0,24,22.269V1.73A1.754,1.754,0,0,0,22.224,0ZM7.119,20.451H3.557V9H7.119V20.451ZM5.339,7.433A2.064,2.064,0,1,1,7.4,5.369,2.064,2.064,0,0,1,5.339,7.433ZM20.453,20.451H16.893V14.882c0-1.328-.023-3.037-1.85-3.037-1.852,0-2.134,1.447-2.134,2.941v5.665H9.354V9h3.411v1.566h.049a3.739,3.739,0,0,1,3.367-1.85c3.6,0,4.271,2.372,4.271,5.457Z" transform="translate(0 0)" fill="#ffffff"/>
</svg>
