<?xml version="1.0" encoding="utf-8"?>
<!-- Generator: Adobe Illustrator 25.4.1, SVG Export Plug-In . SVG Version: 6.00 Build 0)  -->
<svg version="1.1" id="Layer_1" xmlns="http://www.w3.org/2000/svg" xmlns:xlink="http://www.w3.org/1999/xlink" x="0px" y="0px"
	 viewBox="0 0 65 65" style="enable-background:new 0 0 65 65;" xml:space="preserve">
<style type="text/css">
	.st0{fill:none;stroke:#2E1A47;stroke-width:2;stroke-miterlimit:10;}
</style>
<g>
	<g>
		<g>
			<line class="st0" x1="25" y1="30.9" x2="25" y2="27.6"/>
			<line class="st0" x1="32.7" y1="30.9" x2="32.7" y2="27.6"/>
			<line class="st0" x1="40.4" y1="30.9" x2="40.4" y2="27.6"/>
		</g>
		<g>
			<line class="st0" x1="25" y1="40.6" x2="25" y2="37.3"/>
			<line class="st0" x1="32.7" y1="40.6" x2="32.7" y2="37.3"/>
			<line class="st0" x1="40.4" y1="40.6" x2="40.4" y2="37.3"/>
		</g>
		<g>
			<line class="st0" x1="25" y1="50.4" x2="25" y2="47.1"/>
			<line class="st0" x1="32.7" y1="50.4" x2="32.7" y2="47.1"/>
			<line class="st0" x1="40.4" y1="50.4" x2="40.4" y2="47.1"/>
		</g>
	</g>
	<path class="st0" d="M49.7,25.6v28.2c0,2.6-2.1,4.7-4.7,4.7H20.5c-2.7,0-4.8-2.2-4.8-4.8V11.3c0-2.6,2.1-4.8,4.8-4.8h24.4
		c2.6,0,4.8,2.1,4.8,4.8v8.2H15.8"/>
</g>
</svg>
