<?xml version="1.0" encoding="utf-8"?>
<!-- Generator: Adobe Illustrator 28.0.0, SVG Export Plug-In . SVG Version: 6.00 Build 0)  -->
<svg version="1.1" id="money-jar" xmlns="http://www.w3.org/2000/svg" xmlns:xlink="http://www.w3.org/1999/xlink" x="0px" y="0px"
	 viewBox="0 0 48 48" style="enable-background:new 0 0 48 48;" xml:space="preserve">
<style type="text/css">
	.st0{fill:none;stroke:#2E1A47;stroke-width:2;stroke-miterlimit:10;}
	.st1{fill:none;stroke:#2E1A47;stroke-width:2;stroke-miterlimit:9.9997;}
</style>
<path class="st0" d="M37.2,1H10.8v5.5H8.1c-1.5,0-2.8,1.3-2.8,2.8v35c0,1.5,1.3,2.8,2.8,2.8h31.8c1.5,0,2.8-1.3,2.8-2.8v-35
	c0-1.5-1.3-2.8-2.8-2.8h-2.8"/>
<line class="st0" x1="10.8" y1="6.5" x2="31.1" y2="6.5"/>
<rect x="11.2" y="40.7" class="st0" width="14.7" height="6.2"/>
<rect x="9.2" y="34.4" class="st0" width="14.7" height="6.2"/>
<rect x="10.7" y="28.2" class="st0" width="14.7" height="6.2"/>
<rect x="28.8" y="31.4" transform="matrix(0.7071 -0.7071 0.7071 0.7071 -18.0534 33.9133)" class="st1" width="6.2" height="14.7"/>
</svg>
