<svg xmlns="http://www.w3.org/2000/svg" width="102" height="75.106" viewBox="0 0 102 75.106">
  <g data-name="Group 14577" transform="translate(-81.905 -90.728)">
    <path data-name="Path 9730" d="M164.043,143.539a11.843,11.843,0,0,0,11.846-11.84v0h0V103.568a11.844,11.844,0,0,0-11.846-11.84H107.786a11.844,11.844,0,0,0-11.851,11.837v0h0" transform="translate(7.016 0)" fill="none" stroke="#2e1a47" stroke-linecap="round" stroke-miterlimit="3.998" stroke-width="2"/>
    <rect data-name="Rectangle 785" width="82.015" height="54.676" rx="8.363" transform="translate(82.905 110.158)" fill="none" stroke="#2e1a47" stroke-linecap="round" stroke-linejoin="round" stroke-width="2"/>
    <line data-name="Line 134" x2="9.741" transform="translate(95.422 143.865)" fill="none" stroke="#2e1a47" stroke-linecap="round" stroke-linejoin="round" stroke-width="2"/>
    <line data-name="Line 138" x2="32.471" transform="translate(95.419 151.984)" fill="none" stroke="#2e1a47" stroke-linecap="round" stroke-linejoin="round" stroke-width="2"/>
    <line data-name="Line 135" x2="9.741" transform="translate(110.036 143.865)" fill="none" stroke="#2e1a47" stroke-linecap="round" stroke-linejoin="round" stroke-width="2"/>
    <line data-name="Line 136" x2="9.741" transform="translate(124.651 143.865)" fill="none" stroke="#2e1a47" stroke-linecap="round" stroke-linejoin="round" stroke-width="2"/>
    <line data-name="Line 137" x2="9.741" transform="translate(139.27 143.863)" fill="none" stroke="#2e1a47" stroke-linecap="round" stroke-linejoin="round" stroke-width="2"/>
    <rect data-name="Rectangle 784" width="8.133" height="8.133" rx="1.046" transform="translate(92.474 126.727)" fill="none" stroke="#2e1a47" stroke-linecap="round" stroke-miterlimit="10" stroke-width="2"/>
  </g>
</svg>
