<?xml version="1.0" encoding="utf-8"?>
<!-- Generator: Adobe Illustrator 25.4.1, SVG Export Plug-In . SVG Version: 6.00 Build 0)  -->
<svg version="1.1" id="Layer_1" xmlns="http://www.w3.org/2000/svg" xmlns:xlink="http://www.w3.org/1999/xlink" x="0px" y="0px"
	 viewBox="0 0 105 105" style="enable-background:new 0 0 105 105;" xml:space="preserve">
<style type="text/css">
	.st0{fill:none;stroke:#ffffff;stroke-width:2;stroke-linecap:round;stroke-miterlimit:10;}
	.st1{fill:none;stroke:#ffffff;stroke-width:2;stroke-miterlimit:10;}
	.st2{fill:#ffffff;}
</style>
<g>
	<line id="Line_2724" class="st0" x1="41" y1="102.6" x2="65.1" y2="102.6"/>
	<g>
		<path id="Path_10138" class="st0" d="M85.4,52.2C85.5,70,71.1,84.6,53.2,84.7c-17.9,0.1-32.4-14.3-32.5-32.1c0-0.1,0-0.2,0-0.4"/>
		<g id="Path_10139" transform="translate(-99.423 -30.184)">
			<path id="Path_12716" class="st1" d="M162.4,35.3c6.5,3.6,10.6,10.4,10.8,17.8v29.5c0,11.4-9.3,20.7-20.7,20.7l0,0
				c-11.4,0-20.7-9.3-20.7-20.7c0,0,0,0,0,0V53.1c0.2-11.4,9.7-20.5,21.1-20.3c1.6,0,3.3,0.3,4.9,0.7"/>
		</g>
		<line id="Line_243" class="st0" x1="53" y1="84.7" x2="53" y2="102.6"/>
		<circle id="Ellipse_575" class="st2" cx="39.7" cy="29.2" r="1.5"/>
		<circle id="Ellipse_576" class="st2" cx="44.4" cy="24.3" r="1.5"/>
		<circle id="Ellipse_577" class="st2" cx="39.7" cy="39" r="1.5"/>
		<circle id="Ellipse_578" class="st2" cx="44.4" cy="34.1" r="1.5"/>
		<circle id="Ellipse_579" class="st2" cx="39.7" cy="48.9" r="1.5"/>
		<circle id="Ellipse_580" class="st2" cx="44.4" cy="43.9" r="1.5"/>
		<circle id="Ellipse_581" class="st2" cx="44.4" cy="53.8" r="1.5"/>
	</g>
</g>
<g id="Path_10139_00000114070727815220164970000002290465598886530176_" transform="translate(-99.423 -30.184)">
	<path class="st2" d="M152.5,104.3c-12,0-21.7-9.7-21.7-21.7V53.1c0.1-5.8,2.5-11.2,6.7-15.2s9.7-6.2,15.5-6.1
		c1.7,0,3.4,0.3,5.1,0.7l-0.5,1.9c-1.5-0.4-3.1-0.6-4.6-0.6c-5.3-0.1-10.3,1.9-14.1,5.5c-3.8,3.7-5.9,8.6-6,13.8v29.5
		c0,10.9,8.8,19.7,19.7,19.7c10.9,0,19.7-8.8,19.7-19.7V53.1c-0.1-7-4.1-13.5-10.2-16.9l1-1.8c6.8,3.7,11.1,10.9,11.3,18.6v29.5
		C174.2,94.5,164.4,104.3,152.5,104.3z"/>
</g>
</svg>
