<svg width="27" height="28" viewBox="0 0 27 28" fill="none" xmlns="http://www.w3.org/2000/svg">
<path d="M3.78564 4.49792H8.03527V8.74755H3.78564V4.49792Z" stroke="#AFABC9" stroke-width="2"/>
<path d="M3.78564 19.6719H8.03527V23.9215H3.78564V19.6719Z" stroke="#AFABC9" stroke-width="2"/>
<path d="M18.9648 4.49792H23.2145V8.74755H18.9648V4.49792Z" stroke="#AFABC9" stroke-width="2"/>
<path d="M22.4283 11.5324V16.8895H17.9644V18.6753H24.214V11.5322L22.4283 11.5324Z" fill="#AFABC9"/>
<path d="M17.9648 20.4609V24.9253H19.7503V22.2468H22.4288V24.9253H24.2147V20.4609H17.9648Z" fill="#AFABC9"/>
<path d="M10.8213 3.49792V5.28375H14.3926V9.74774H16.1784V3.49812L10.8213 3.49792Z" fill="#AFABC9"/>
<path d="M14.3926 11.5323V15.1036H10.8213V20.4607H14.3926V24.9251H16.1784V18.6755H12.6071V16.8896H16.1784V13.3184H17.9642V15.1038H19.7497V11.5325L14.3926 11.5323Z" fill="#AFABC9"/>
<path d="M10.8213 22.2477H12.6071V24.9262H10.8213V22.2477Z" fill="#AFABC9"/>
<path d="M6.35693 15.1031H9.03548V16.889H6.35693V15.1031Z" fill="#AFABC9"/>
<path d="M10.8213 7.06885V11.5332H2.78564V16.8903H4.57147V13.319H12.6071V7.06894L10.8213 7.06885Z" fill="#AFABC9"/>
<path d="M1 5.28273V1.7113H4.57143" stroke="#AFABC9" stroke-width="2"/>
<path d="M26 23.1399L26 26.7113L22.4286 26.7113" stroke="#AFABC9" stroke-width="2"/>
<path d="M4.57143 26.7113L1 26.7113L1 23.1399" stroke="#AFABC9" stroke-width="2"/>
<path d="M22.4286 1.7113L26 1.7113L26 5.28273" stroke="#AFABC9" stroke-width="2"/>
</svg>
