<?xml version="1.0" encoding="utf-8"?>
<!-- Generator: Adobe Illustrator 27.4.1, SVG Export Plug-In . SVG Version: 6.00 Build 0)  -->
<svg version="1.1" xmlns="http://www.w3.org/2000/svg" xmlns:xlink="http://www.w3.org/1999/xlink" x="0px" y="0px"
	 viewBox="0 0 26 26" style="enable-background:new 0 0 26 26;" xml:space="preserve">
<style type="text/css">
	.st0{display:none;}
	.st1{display:inline;stroke:#000000;stroke-miterlimit:10;}
	.st2{fill:none;stroke:#C0BBFA;stroke-width:2;}
	.st3{fill:#C0BBFA;}
	.st4{fill:#C0BBFA;filter:url(#Adobe_OpacityMaskFilter);}
	.st5{mask:url(#path-4-inside-1_1005_17883_00000049189460817564806730000012911056659653120424_);fill:#C0BBFA;}
	.st6{fill:#C0BBFA;filter:url(#Adobe_OpacityMaskFilter_00000008833865901858365210000000076099683636873888_);}
	.st7{mask:url(#path-6-inside-2_1005_17883_00000129197778844979953170000001538610308167379850_);fill:#C0BBFA;}
	.st8{fill:#C0BBFA;filter:url(#Adobe_OpacityMaskFilter_00000034079198060334731250000013175276561452150207_);}
	.st9{mask:url(#path-8-inside-3_1005_17883_00000161596140284319658130000006954870430965183889_);fill:#C0BBFA;}
	.st10{fill:#C0BBFA;filter:url(#Adobe_OpacityMaskFilter_00000149384022269352786770000003307665099233022129_);}
	.st11{mask:url(#path-10-inside-4_1005_17883_00000036240456095055567840000001627784095271291568_);fill:#C0BBFA;}
	.st12{fill:#C0BBFA;filter:url(#Adobe_OpacityMaskFilter_00000134965614677877169930000016524553447762769083_);}
	.st13{mask:url(#path-12-inside-5_1005_17883_00000016068600759331117080000016767826319722128270_);fill:#C0BBFA;}
	.st14{fill:#C0BBFA;filter:url(#Adobe_OpacityMaskFilter_00000051346135433179374680000017553633996153187241_);}
	.st15{mask:url(#path-14-inside-6_1005_17883_00000038377241723661018350000014923733387816097447_);fill:#C0BBFA;}
	.st16{fill:#C0BBFA;filter:url(#Adobe_OpacityMaskFilter_00000131345388891261807150000005872198501717418643_);}
	.st17{mask:url(#path-16-inside-7_1005_17883_00000036242967512487136110000017650010511922370727_);fill:#C0BBFA;}
</style>
<g id="Layer_2" class="st0">
	<rect x="-70" y="-74" class="st1" width="173" height="158"/>
</g>
<g id="Layer_1">
	<path class="st2" d="M3.7,3.7h4v4h-4V3.7z"/>
	<path class="st2" d="M3.7,18.3h4v4h-4V18.3z"/>
	<path class="st2" d="M18.3,3.7h4v4h-4V3.7z"/>
	<path class="st3" d="M21.6,10.4v5.1h-4.3v1.7h6v-6.9L21.6,10.4z"/>
	<defs>
		<filter id="Adobe_OpacityMaskFilter" filterUnits="userSpaceOnUse" x="15.3" y="8.4" width="10" height="10.9">
			<feColorMatrix  type="matrix" values="1 0 0 0 0  0 1 0 0 0  0 0 1 0 0  0 0 0 1 0"/>
		</filter>
	</defs>
	
		<mask maskUnits="userSpaceOnUse" x="15.3" y="8.4" width="10" height="10.9" id="path-4-inside-1_1005_17883_00000049189460817564806730000012911056659653120424_">
		<path class="st4" d="M21.6,10.4v5.1h-4.3v1.7h6v-6.9L21.6,10.4z"/>
	</mask>
	<path class="st5" d="M21.6,10.4l0-2l-2,0v2H21.6z M21.6,15.6v2h2v-2H21.6z M17.3,15.6v-2h-2v2H17.3z M17.3,17.3h-2v2h2V17.3z
		 M23.3,17.3v2h2v-2H23.3z M23.3,10.4h2v-2l-2,0L23.3,10.4z M19.6,10.4v5.1h4v-5.1H19.6z M21.6,13.6h-4.3v4h4.3V13.6z M15.3,15.6
		v1.7h4v-1.7H15.3z M17.3,19.3h6v-4h-6V19.3z M25.3,17.3v-6.9h-4v6.9H25.3z M23.3,8.4l-1.7,0l0,4l1.7,0L23.3,8.4z"/>
	<path class="st3" d="M17.3,19v4.3H19v-2.6h2.6v2.6h1.7V19H17.3z"/>
	<defs>
		
			<filter id="Adobe_OpacityMaskFilter_00000013164237712156627230000004703587126432190138_" filterUnits="userSpaceOnUse" x="15.3" y="17" width="10" height="8.3">
			<feColorMatrix  type="matrix" values="1 0 0 0 0  0 1 0 0 0  0 0 1 0 0  0 0 0 1 0"/>
		</filter>
	</defs>
	
		<mask maskUnits="userSpaceOnUse" x="15.3" y="17" width="10" height="8.3" id="path-6-inside-2_1005_17883_00000129197778844979953170000001538610308167379850_">
		<path style="fill:#FFFFFF;filter:url(#Adobe_OpacityMaskFilter_00000013164237712156627230000004703587126432190138_);" d="
			M17.3,19v4.3H19v-2.6h2.6v2.6h1.7V19H17.3z"/>
	</mask>
	<path class="st7" d="M17.3,19v-2h-2v2H17.3z M17.3,23.3h-2v2h2V23.3z M19,23.3v2h2v-2H19z M19,20.7v-2h-2v2H19z M21.6,20.7h2v-2h-2
		V20.7z M21.6,23.3h-2v2h2V23.3z M23.3,23.3v2h2v-2H23.3z M23.3,19h2v-2h-2V19z M15.3,19v4.3h4V19H15.3z M17.3,25.3H19v-4h-1.7V25.3
		z M21,23.3v-2.6h-4v2.6H21z M19,22.7h2.6v-4H19V22.7z M19.6,20.7v2.6h4v-2.6H19.6z M21.6,25.3h1.7v-4h-1.7V25.3z M25.3,23.3V19h-4
		v4.3H25.3z M23.3,17h-6v4h6V17z"/>
	<path class="st3" d="M10.4,2.7v1.7h3.4v4.3h1.7v-6L10.4,2.7z"/>
	<defs>
		
			<filter id="Adobe_OpacityMaskFilter_00000023250494968022465410000008934288749311898777_" filterUnits="userSpaceOnUse" x="8.4" y="0.7" width="9.1" height="10">
			<feColorMatrix  type="matrix" values="1 0 0 0 0  0 1 0 0 0  0 0 1 0 0  0 0 0 1 0"/>
		</filter>
	</defs>
	
		<mask maskUnits="userSpaceOnUse" x="8.4" y="0.7" width="9.1" height="10" id="path-8-inside-3_1005_17883_00000161596140284319658130000006954870430965183889_">
		<path style="fill:#FFFFFF;filter:url(#Adobe_OpacityMaskFilter_00000023250494968022465410000008934288749311898777_);" d="
			M10.4,2.7v1.7h3.4v4.3h1.7v-6L10.4,2.7z"/>
	</mask>
	<path class="st9" d="M10.4,2.7l0-2l-2,0v2H10.4z M10.4,4.4h-2v2h2V4.4z M13.9,4.4h2v-2h-2V4.4z M13.9,8.7h-2v2h2V8.7z M15.6,8.7v2
		h2v-2H15.6z M15.6,2.7h2v-2l-2,0V2.7z M8.4,2.7v1.7h4V2.7H8.4z M10.4,6.4h3.4v-4h-3.4V6.4z M11.9,4.4v4.3h4V4.4H11.9z M13.9,10.7
		h1.7v-4h-1.7V10.7z M17.6,8.7v-6h-4v6H17.6z M15.6,0.7l-5.1,0l0,4l5.1,0L15.6,0.7z"/>
	<path class="st3" d="M13.9,10.4v3.4h-3.4V19h3.4v4.3h1.7v-6h-3.4v-1.7h3.4v-3.4h1.7v1.7H19v-3.4L13.9,10.4z"/>
	<defs>
		
			<filter id="Adobe_OpacityMaskFilter_00000099622416263610379140000017487022578051144345_" filterUnits="userSpaceOnUse" x="8.4" y="8.4" width="12.6" height="16.9">
			<feColorMatrix  type="matrix" values="1 0 0 0 0  0 1 0 0 0  0 0 1 0 0  0 0 0 1 0"/>
		</filter>
	</defs>
	
		<mask maskUnits="userSpaceOnUse" x="8.4" y="8.4" width="12.6" height="16.9" id="path-10-inside-4_1005_17883_00000036240456095055567840000001627784095271291568_">
		<path style="fill:#FFFFFF;filter:url(#Adobe_OpacityMaskFilter_00000099622416263610379140000017487022578051144345_);" d="
			M13.9,10.4v3.4h-3.4V19h3.4v4.3h1.7v-6h-3.4v-1.7h3.4v-3.4h1.7v1.7H19v-3.4L13.9,10.4z"/>
	</mask>
	<path class="st11" d="M13.9,10.4v-2l-2,0v2H13.9z M13.9,13.9v2h2v-2H13.9z M10.4,13.9v-2h-2v2H10.4z M10.4,19h-2v2h2V19z M13.9,19
		h2v-2h-2V19z M13.9,23.3h-2v2h2V23.3z M15.6,23.3v2h2v-2H15.6z M15.6,17.3h2v-2h-2V17.3z M12.1,17.3h-2v2h2V17.3z M12.1,15.6v-2h-2
		v2H12.1z M15.6,15.6v2h2v-2H15.6z M15.6,12.1v-2h-2v2H15.6z M17.3,12.1h2v-2h-2V12.1z M17.3,13.9h-2v2h2V13.9z M19,13.9v2h2v-2H19z
		 M19,10.4h2v-2l-2,0V10.4z M11.9,10.4v3.4h4v-3.4H11.9z M13.9,11.9h-3.4v4h3.4V11.9z M8.4,13.9V19h4v-5.1H8.4z M10.4,21h3.4v-4
		h-3.4V21z M11.9,19v4.3h4V19H11.9z M13.9,25.3h1.7v-4h-1.7V25.3z M17.6,23.3v-6h-4v6H17.6z M15.6,15.3h-3.4v4h3.4V15.3z M14.1,17.3
		v-1.7h-4v1.7H14.1z M12.1,17.6h3.4v-4h-3.4V17.6z M17.6,15.6v-3.4h-4v3.4H17.6z M15.6,14.1h1.7v-4h-1.7V14.1z M15.3,12.1v1.7h4
		v-1.7H15.3z M17.3,15.9H19v-4h-1.7V15.9z M21,13.9v-3.4h-4v3.4H21z M19,8.4l-5.1,0l0,4l5.1,0L19,8.4z"/>
	<path class="st3" d="M10.4,20.7h1.7v2.6h-1.7V20.7z"/>
	<defs>
		
			<filter id="Adobe_OpacityMaskFilter_00000161632018243134452270000016531164229253039801_" filterUnits="userSpaceOnUse" x="8.4" y="18.7" width="5.7" height="6.6">
			<feColorMatrix  type="matrix" values="1 0 0 0 0  0 1 0 0 0  0 0 1 0 0  0 0 0 1 0"/>
		</filter>
	</defs>
	
		<mask maskUnits="userSpaceOnUse" x="8.4" y="18.7" width="5.7" height="6.6" id="path-12-inside-5_1005_17883_00000016068600759331117080000016767826319722128270_">
		<path style="fill:#FFFFFF;filter:url(#Adobe_OpacityMaskFilter_00000161632018243134452270000016531164229253039801_);" d="
			M10.4,20.7h1.7v2.6h-1.7V20.7z"/>
	</mask>
	<path class="st13" d="M10.4,20.7v-2h-2v2H10.4z M12.1,20.7h2v-2h-2V20.7z M12.1,23.3v2h2v-2H12.1z M10.4,23.3h-2v2h2V23.3z
		 M10.4,22.7h1.7v-4h-1.7V22.7z M10.1,20.7v2.6h4v-2.6H10.1z M12.1,21.3h-1.7v4h1.7V21.3z M12.4,23.3v-2.6h-4v2.6H12.4z"/>
	<path class="st3" d="M6.1,13.9h2.6v1.7H6.1V13.9z"/>
	<defs>
		
			<filter id="Adobe_OpacityMaskFilter_00000062877035719485559920000015591706663421194912_" filterUnits="userSpaceOnUse" x="4.1" y="11.9" width="6.6" height="5.7">
			<feColorMatrix  type="matrix" values="1 0 0 0 0  0 1 0 0 0  0 0 1 0 0  0 0 0 1 0"/>
		</filter>
	</defs>
	
		<mask maskUnits="userSpaceOnUse" x="4.1" y="11.9" width="6.6" height="5.7" id="path-14-inside-6_1005_17883_00000038377241723661018350000014923733387816097447_">
		<path style="fill:#FFFFFF;filter:url(#Adobe_OpacityMaskFilter_00000062877035719485559920000015591706663421194912_);" d="
			M6.1,13.9h2.6v1.7H6.1V13.9z"/>
	</mask>
	<path class="st15" d="M6.1,13.9v-2h-2v2H6.1z M8.7,13.9h2v-2h-2V13.9z M8.7,15.6v2h2v-2H8.7z M6.1,15.6h-2v2h2V15.6z M6.1,15.9h2.6
		v-4H6.1V15.9z M6.7,13.9v1.7h4v-1.7H6.7z M8.7,13.6H6.1v4h2.6V13.6z M8.1,15.6v-1.7h-4v1.7H8.1z"/>
	<path class="st3" d="M10.4,6.1v4.3H2.7v5.1h1.7v-3.4h7.7v-6L10.4,6.1z"/>
	<defs>
		
			<filter id="Adobe_OpacityMaskFilter_00000106129435327784677140000009419390574878847134_" filterUnits="userSpaceOnUse" x="0.7" y="4.1" width="13.4" height="13.4">
			<feColorMatrix  type="matrix" values="1 0 0 0 0  0 1 0 0 0  0 0 1 0 0  0 0 0 1 0"/>
		</filter>
	</defs>
	
		<mask maskUnits="userSpaceOnUse" x="0.7" y="4.1" width="13.4" height="13.4" id="path-16-inside-7_1005_17883_00000036242967512487136110000017650010511922370727_">
		<path style="fill:#FFFFFF;filter:url(#Adobe_OpacityMaskFilter_00000106129435327784677140000009419390574878847134_);" d="
			M10.4,6.1v4.3H2.7v5.1h1.7v-3.4h7.7v-6L10.4,6.1z"/>
	</mask>
	<path class="st17" d="M10.4,6.1l0-2l-2,0v2H10.4z M10.4,10.4v2h2v-2H10.4z M2.7,10.4v-2h-2v2H2.7z M2.7,15.6h-2v2h2V15.6z
		 M4.4,15.6v2h2v-2H4.4z M4.4,12.1v-2h-2v2H4.4z M12.1,12.1v2h2v-2H12.1z M12.1,6.1h2v-2l-2,0L12.1,6.1z M8.4,6.1v4.3h4V6.1H8.4z
		 M10.4,8.4H2.7v4h7.7V8.4z M0.7,10.4v5.1h4v-5.1H0.7z M2.7,17.6h1.7v-4H2.7V17.6z M6.4,15.6v-3.4h-4v3.4H6.4z M4.4,14.1h7.7v-4H4.4
		V14.1z M14.1,12.1v-6h-4v6H14.1z M12.1,4.1l-1.7,0l0,4l1.7,0L12.1,4.1z"/>
	<path class="st2" d="M1,4.4V1h3.4"/>
	<path class="st2" d="M25,21.6V25h-3.4"/>
	<path class="st2" d="M4.4,25H1v-3.4"/>
	<path class="st2" d="M21.6,1H25v3.4"/>
</g>
</svg>
