<?xml version="1.0" encoding="utf-8"?>
<!-- Generator: Adobe Illustrator 27.5.0, SVG Export Plug-In . SVG Version: 6.00 Build 0)  -->
<svg version="1.1" id="Layer_1" xmlns="http://www.w3.org/2000/svg" xmlns:xlink="http://www.w3.org/1999/xlink" x="0px" y="0px"
	 viewBox="0 0 22 18" style="enable-background:new 0 0 22 18;" xml:space="preserve">
<style type="text/css">
	.st0{fill:#006D7A;}
	.st1{display:none;fill:#006D7A;stroke:#006D7A;stroke-width:2;stroke-miterlimit:10;}
</style>
<path class="st0" d="M20.5,9l0.9,0.4c0.1-0.3,0.1-0.6,0-0.8L20.5,9z M1.5,9L0.6,8.6c-0.1,0.3-0.1,0.6,0,0.8L1.5,9z M20.5,9
	c-0.9-0.4-0.9-0.4-0.9-0.4c0,0,0,0,0,0c0,0,0,0,0,0c0,0,0,0,0,0c0,0,0,0,0,0c0,0,0,0,0,0.1c0,0-0.1,0.1-0.1,0.2
	c-0.1,0.2-0.2,0.5-0.4,0.8c-0.4,0.7-1,1.6-1.7,2.4c-1.5,1.8-3.7,3.4-6.3,3.4v2c3.5,0,6.1-2.1,7.8-4.1c0.9-1,1.5-2,2-2.7
	c0.2-0.4,0.4-0.7,0.5-0.9c0.1-0.1,0.1-0.2,0.1-0.3c0,0,0-0.1,0-0.1c0,0,0,0,0,0c0,0,0,0,0,0c0,0,0,0,0,0c0,0,0,0,0,0
	C21.4,9.4,21.4,9.4,20.5,9z M11,15.5c-2.6,0-4.7-1.6-6.3-3.4C4,11.2,3.4,10.3,3,9.7C2.8,9.3,2.6,9.1,2.5,8.9c0-0.1-0.1-0.2-0.1-0.2
	c0,0,0,0,0-0.1c0,0,0,0,0,0c0,0,0,0,0,0c0,0,0,0,0,0c0,0,0,0,0,0c0,0,0,0-0.9,0.4C0.6,9.4,0.6,9.4,0.6,9.4c0,0,0,0,0,0c0,0,0,0,0,0
	c0,0,0,0,0,0c0,0,0,0,0,0c0,0,0,0,0,0.1c0,0.1,0.1,0.1,0.1,0.3c0.1,0.2,0.3,0.5,0.5,0.9c0.4,0.7,1.1,1.7,2,2.7
	c1.7,2,4.3,4.1,7.8,4.1V15.5z M1.5,9c0.9,0.4,0.9,0.4,0.9,0.4c0,0,0,0,0,0c0,0,0,0,0,0c0,0,0,0,0,0c0,0,0,0,0,0c0,0,0,0,0-0.1
	c0,0,0.1-0.1,0.1-0.2C2.6,8.9,2.8,8.7,3,8.3c0.4-0.7,1-1.6,1.7-2.4C6.3,4.1,8.4,2.5,11,2.5v-2c-3.5,0-6.1,2.1-7.8,4.1
	c-0.9,1-1.5,2-2,2.7C1.1,7.7,0.9,8,0.8,8.2C0.7,8.3,0.7,8.4,0.6,8.5c0,0,0,0.1,0,0.1c0,0,0,0,0,0c0,0,0,0,0,0c0,0,0,0,0,0
	c0,0,0,0,0,0C0.6,8.6,0.6,8.6,1.5,9z M11,2.5c2.6,0,4.7,1.6,6.3,3.4C18,6.8,18.6,7.7,19,8.3c0.2,0.3,0.3,0.6,0.4,0.8
	c0,0.1,0.1,0.2,0.1,0.2c0,0,0,0,0,0.1c0,0,0,0,0,0c0,0,0,0,0,0c0,0,0,0,0,0c0,0,0,0,0,0c0,0,0,0,0.9-0.4s0.9-0.4,0.9-0.4
	c0,0,0,0,0,0c0,0,0,0,0,0c0,0,0,0,0,0c0,0,0,0,0,0c0,0,0,0,0-0.1c0-0.1-0.1-0.1-0.1-0.3c-0.1-0.2-0.3-0.5-0.5-0.9
	c-0.4-0.7-1.1-1.7-2-2.7c-1.7-2-4.3-4.1-7.8-4.1V2.5z M13.5,9c0,1.4-1.1,2.5-2.5,2.5v2c2.5,0,4.5-2,4.5-4.5H13.5z M11,11.5
	c-1.4,0-2.5-1.1-2.5-2.5h-2c0,2.5,2,4.5,4.5,4.5V11.5z M8.5,9c0-1.4,1.1-2.5,2.5-2.5v-2c-2.5,0-4.5,2-4.5,4.5H8.5z M11,6.5
	c1.4,0,2.5,1.1,2.5,2.5h2c0-2.5-2-4.5-4.5-4.5V6.5z"/>
<line class="st1" x1="1.4" y1="17" x2="20.5" y2="1.5"/>
</svg>
