<?xml version="1.0" encoding="utf-8"?>
<!-- Generator: Adobe Illustrator 27.3.1, SVG Export Plug-In . SVG Version: 6.00 Build 0)  -->
<svg version="1.1" id="store-front" xmlns="http://www.w3.org/2000/svg" xmlns:xlink="http://www.w3.org/1999/xlink" x="0px"
	 y="0px" viewBox="0 0 48 48" style="enable-background:new 0 0 48 48;" xml:space="preserve">
<style type="text/css">
	.st0{fill:none;stroke:#2E1A47;stroke-width:2;stroke-linecap:round;stroke-miterlimit:10;}
	.st1{fill:none;stroke:#2E1A47;stroke-width:2;stroke-miterlimit:10;}
</style>
<path class="st0" d="M8.7,17.7c0,2.1-1.7,3.8-3.8,3.8l0,0c-2.1,0-3.8-1.7-3.8-3.8V8.8c0-1.7,1.3-3,3-3h39.8c1.7,0,3,1.3,3,3v8.9
	c0,2.1-1.7,3.8-3.8,3.8l0,0c-2.1,0-3.8-1.7-3.8-3.8v-1.5"/>
<path class="st0" d="M16.4,16.1v1.5c0,2.1-1.7,3.8-3.8,3.8l0,0c-2.1,0-3.8-1.7-3.8-3.8v-2.2"/>
<path class="st0" d="M24,16.1v1.5c0,2.1-1.7,3.8-3.8,3.8l0,0c-2.1,0-3.8-1.7-3.8-3.8v-2.2"/>
<path class="st0" d="M31.6,16.1v1.5c0,2.1-1.7,3.8-3.8,3.8l0,0c-2.1,0-3.8-1.7-3.8-3.8v-2.2"/>
<path class="st0" d="M39.3,15.5v2.2c0,2.1-1.7,3.8-3.8,3.8l0,0c-2.1,0-3.8-1.7-3.8-3.8v-2.2"/>
<line class="st1" x1="43.2" y1="21.5" x2="43.2" y2="48"/>
<path class="st1" d="M36.1,48V28.7H24V47H7.8c-1.7,0-3-1.3-3-3V21.5"/>
<polyline class="st1" points="4.8,5.8 4.8,1 43.2,1 43.2,5.8 "/>
<rect x="11.9" y="28.7" class="st1" width="7.2" height="11.3"/>
</svg>
