<svg height="86" viewBox="0 0 365 86" width="365" xmlns="http://www.w3.org/2000/svg"><path d="m357.006 78.549v-31.504h-21.772v15.612h-8.33v-39.554h8.33v15.612h21.772v-31.504h-71.337v31.504h21.773v-15.612h8.33v39.554h-8.33v-15.612h-21.773v31.504zm-78.548-.63v-70.078c0-4.9 2.941-7.841 7.841-7.841h70.077c4.901 0 7.841 2.941 7.841 7.841v70.078c0 4.9-2.94 7.841-7.841 7.841h-70.077c-4.9 0-7.841-2.941-7.841-7.841zm-45.708-10.533v-41.165h-15.542v-7.841h39.624v7.841h-15.541v41.165zm-40.739-21.073c-6.581-2.24-13.722-5.04-13.722-14.211 0-8.961 6.651-14.771 16.873-14.771 4.62 0 8.47 1.049 11.901 2.59v8.961c-3.851-2.381-7.701-3.781-11.901-3.781-5.041 0-8.192 2.38-8.192 6.161 0 4.481 4.131 5.811 10.642 8.051 6.581 2.24 13.721 5.04 13.721 14.211 0 9.101-6.791 14.912-17.222 14.912-5.67 0-10.291-1.47-14.141-3.431v-9.1c4.481 2.8 8.961 4.76 14.141 4.76 5.251 0 8.541-2.52 8.541-6.301 0-4.48-4.13-5.81-10.641-8.051zm-36.541 21.073h8.541v-49.006h-8.541zm-55.509-18.973v-30.033h8.541v29.894c0 7.631 4.201 12.321 11.131 12.321 6.931 0 11.131-4.69 11.131-12.321v-29.894h8.541v30.033c0 11.902-7.911 20.023-19.672 20.023s-19.672-8.121-19.672-20.023zm-30.308-6.09c4.83 0 8.331-3.36 8.331-8.121 0-4.69-3.501-8.051-8.331-8.051h-10.572v16.172zm1.54 15.192c-2.38-4.901-3.641-7.561-9.171-7.561h-2.941v17.432h-8.54v-49.006h19.181c10.012 0 17.013 6.441 17.013 15.612 0 7.561-4.481 12.671-11.411 14.421 3.149 3.221 4.199 7.422 6.299 9.522 1.19 1.19 2.451 1.89 4.412 1.89.769 0 1.399-.07 1.96-.21v7.771c-1.05.21-2.031.35-3.081.35-8.471 0-11.061-4.691-13.721-10.221zm-55.651 9.871v-41.165h-15.542v-7.841h39.624v7.841h-15.541v41.165z" fill="#fff" fill-rule="evenodd"/></svg>