<?xml version="1.0" standalone="no"?>
<!DOCTYPE svg PUBLIC "-//W3C//DTD SVG 1.1//EN" "http://www.w3.org/Graphics/SVG/1.1/DTD/svg11.dtd">
<svg xmlns="http://www.w3.org/2000/svg">
<metadata>Copyright (C) 2021 by original authors @ fontello.com</metadata>
<defs>
<font id="truist-icons" horiz-adv-x="1000" >
<font-face font-family="truist-icons" font-weight="400" font-stretch="normal" units-per-em="1000" ascent="850" descent="-150" />
<missing-glyph horiz-adv-x="1000" />
<glyph glyph-name="account-details" unicode="&#xe800;" d="M266-25a31 31 0 0 0 0 63h718a31 31 0 0 0 0-63z m-219 0a31 31 0 0 0 0 63h62a31 31 0 1 0 0-63z m219 344a31 31 0 0 0 0 62h718a31 31 0 0 0 0-62z m-219 0a31 31 0 0 0 0 62h62a31 31 0 1 0 0-62z m219 344a31 31 0 0 0 0 62h718a31 31 0 0 0 0-62z m-219 0a31 31 0 0 0 0 62h62a31 31 0 1 0 0-62z" horiz-adv-x="1031" />

<glyph glyph-name="accounts" unicode="&#xe801;" d="M234 6v63h-93a125 125 0 0 0-125 125 31 31 0 0 0 31 31 31 31 0 0 0 31-31 63 63 0 0 1 63-63h93v188h-93a125 125 0 0 0-125 125v62a125 125 0 0 0 125 125h93v63a31 31 0 0 0 32 31 31 31 0 0 0 31-31v-63h94a125 125 0 0 0 125-125 31 31 0 0 0-32-31 31 31 0 0 0-31 31 63 63 0 0 1-62 63h-94v-188h94a125 125 0 0 0 125-125v-62a125 125 0 0 0-125-125h-94v-63a31 31 0 0 0-31-31 31 31 0 0 0-32 31z m63 125h94a63 63 0 0 1 62 63v62a63 63 0 0 1-62 63h-94z m-219 375v-62a63 63 0 0 1 63-63h93v188h-93a63 63 0 0 1-63-63z m563-375a31 31 0 0 0-32 32 31 31 0 0 0 32 31h343a31 31 0 0 0 32-31 31 31 0 0 0-32-32z m0 188a31 31 0 0 0-32 31 31 31 0 0 0 32 31h343a31 31 0 0 0 32-31 31 31 0 0 0-32-31z m0 187a31 31 0 0 0-32 32 31 31 0 0 0 32 31h343a31 31 0 0 0 32-31 31 31 0 0 0-32-32z" horiz-adv-x="1031" />

<glyph glyph-name="alert" unicode="&#xe802;" d="M15 350a485 485 0 0 0 485 485 485 485 0 0 0 485-485 485 485 0 0 0-485-485 485 485 0 0 0-485 485z m61 0a425 425 0 0 1 424-424 425 425 0 0 1 424 424 425 425 0 0 1-424 424 425 425 0 0 1-424-424z m394-182a30 30 0 0 0 30 31 30 30 0 0 0 30-31 30 30 0 0 0-30-30 30 30 0 0 0-30 30z m0 121v243a30 30 0 0 0 30 30 30 30 0 0 0 30-30v-243a30 30 0 0 0-30-30 30 30 0 0 0-30 30z" horiz-adv-x="1000" />

<glyph glyph-name="applications" unicode="&#xe803;" d="M188-88a125 125 0 0 0-125 126v468a125 125 0 0 0 125 125h31v32a125 125 0 0 0 125 125h469a125 125 0 0 0 125-125v-469a125 125 0 0 0-125-125h-32v-31a125 125 0 0 0-125-126z m-63 594v-468a63 63 0 0 1 63-63h468a63 63 0 0 1 63 63v31h-375a125 125 0 0 0-125 125v375h-31a63 63 0 0 1-63-63z m156-312a63 63 0 0 1 63-63h469a63 63 0 0 1 62 63v375h-594z m594 437v32a63 63 0 0 1-62 62h-469a63 63 0 0 1-63-62v-32z" horiz-adv-x="1000" />

<glyph glyph-name="approvals" unicode="&#xe804;" d="M242-135a121 121 0 0 0-121 121v728a121 121 0 0 0 121 121h485a121 121 0 0 0 122-121v-273a30 30 0 0 0-31-30 30 30 0 0 0-30 30v273a61 61 0 0 1-61 60h-485a61 61 0 0 1-60-60v-728a61 61 0 0 1 60-60h485a61 61 0 0 1 61 60v91a30 30 0 0 0 30 31 30 30 0 0 0 31-31v-91a121 121 0 0 0-122-121z m343 161l-122 121a30 30 0 0 0 0 43 30 30 0 0 0 43 0l100-100 282 281a30 30 0 0 0 43 0 30 30 0 0 0 0-42l-303-303a30 30 0 0 0-22-9 30 30 0 0 0-21 9z m-282 324a30 30 0 0 0-30 30 30 30 0 0 0 30 31h152a30 30 0 0 0 30-31 30 30 0 0 0-30-30z m0 121a30 30 0 0 0-30 31 30 30 0 0 0 30 30h364a30 30 0 0 0 30-30 30 30 0 0 0-30-31z m0 121a30 30 0 0 0-30 31 30 30 0 0 0 30 30h364a30 30 0 0 0 30-30 30 30 0 0 0-30-31z" horiz-adv-x="970" />

<glyph glyph-name="arrow-down" unicode="&#xe805;" d="M866 247a31 31 0 0 1-44 0l-291-290v862a31 31 0 0 1-62 0v-862l-291 290a31 31 0 0 1-44-44l344-344a31 31 0 0 1 44 0l344 344a31 31 0 0 1 0 44z" horiz-adv-x="1000" />

<glyph glyph-name="arrow-left" unicode="&#xe806;" d="M969 381h-862l290 291a31 31 0 0 1-44 44l-344-344a31 31 0 0 1 0-44l344-344a31 31 0 1 1 44 44l-290 291h862a31 31 0 0 1 0 62z" horiz-adv-x="1000" />

<glyph glyph-name="arrow-right" unicode="&#xe807;" d="M516 588m482-250a31 31 0 0 1-7 34l-344 344a31 31 0 0 1-44-44l290-291h-862a31 31 0 0 1 0-62h862l-290-291a31 31 0 1 1 44-44l344 344a31 31 0 0 1 7 10z m-498 250z m0 0z m0 0z m0 0z m0 0z m0 0z m0 0z m0 0z m0 0z m0 0z m0 0z m0 0z m0 0z m0 0z m0 0z m0 0z m0 0z m0 0z m0 0z m0 0z m0 0z m0 0z m0 0z m0 0z m0 0z m0 0z m0 0z m0 0z m0 0z m0 0z m0 0z m0 0z m0 0z m0 0z m0 0z m0 0z m0 0z m0 0z m0 0z m0 0z m0 0z m0 0z m0 0z m0 0z m0 0z m0 0z m0 0z m0 0z m0 0z m0 0z m0 0z m0 0z m0 0z m0 0z m0 0z m0 0z m0 0z m0 0z m0 0z m0 0z m0 0z m0 0z m0 0z m0 0z m0 0z m0 0z m0 0z m0 0z m0 0z m0 0z m0 0z m0 0z m0 0z m0 0z m0 0z m0 0z m0 0z m0 0z m0 0z m0 0z m0 0z m0 0z m0 0z m0 0z m0 0z m0 0z m0 0z m0 0z m0 0z m0 0z m0 0z m0 0z m0 0z m0 0z m0 0z m0 0z m0 0z m0 0z m0 0z m0 0z m0 0z m0 0z m0 0z m0 0z m0 0z m0 0z m0 0z m0 0z m0 0z m0 0z m0 0z m0 0z m0 0z m0 0z m0 0z m0 0z m0 0z m0 0z m0 0z m0 0z m0 0z m0 0z m0 0z m0 0z m0 0z m0 0z m0 0z m0 0z m0 0z m0 0z m0 0z m0 0z m0 0z m0 0z m0 0z m0 0z m0 0z m0 0z m0 0z m0 0z m0 0z m0 0z m0 0z m0 0z m0 0z m0 0z m0 0z m0 0z m0 0z m0 0z m0 0z m0 0z m0 0z m0 0z m0 0z m0 0z m0 0z m0 0z m0 0z m0 0z m0 0z m0 0z m0 0z m0 0z m0 0z m0 0z m0 0z m0 0z m0 0z m0 0z m0 0z m0 0z m0 0z m0 0z m0 0z m0 0z m0 0z m0 0z m0 0z m0 0z m0 0z m0 0z m0 0z m0 0z m0 0z m0 0z m0 0z m0 0z m0 0z m0 0z m0 0z m0 0z m0 0z m0 0z m0 0z m0 0z m0 0z m0 0z m0 0z m0 0z m0 0z m0 0z m0 0z m0 0z m0 0z m0 0z m0 0z m0 0z m0 0z m0 0z m0 0z m0 0z m0 0z m0 0z m0 0z m0 0z m0 0z m0 0z m0 0z m0 0z m0 0z m0 0z m0 0z m0 0z m0 0z m0 0z m0 0" horiz-adv-x="1000" />

<glyph glyph-name="arrow-up" unicode="&#xe808;" d="M866 497l-344 344a31 31 0 0 1-10 7 31 31 0 0 1-24 0 31 31 0 0 1-10-7l-344-344a31 31 0 0 1 44-44l291 290v-862a31 31 0 0 1 62 0v862l291-290a31 31 0 1 1 44 44z" horiz-adv-x="1000" />

<glyph glyph-name="bell" unicode="&#xe809;" d="M47-25a31 31 0 0 0 0 63h937a31 31 0 0 0 0-63z m62 125a31 31 0 0 0-31 31 438 438 0 0 0 406 437v95h-62a31 31 0 1 0 0 62h187a31 31 0 0 0 0-62h-62v-95a438 438 0 0 0 406-437 31 31 0 0 0-31-31z m33 63h747a375 375 0 0 1-747 0z m570 102l-93 94a31 31 0 1 0 44 44l94-93a31 31 0 0 0-45-45z" horiz-adv-x="1031" />

<glyph glyph-name="calendar" unicode="&#xe80a;" d="M152-135a121 121 0 0 0-122 121v637a121 121 0 0 0 122 121h30v61a30 30 0 0 0 30 30 30 30 0 0 0 30-30v-61h485v61a30 30 0 0 0 31 30 30 30 0 0 0 30-30v-61h30a121 121 0 0 0 121-121v-637a121 121 0 0 0-121-121z m-61 121a61 61 0 0 1 61-60h666a61 61 0 0 1 61 60v485h-788z m0 637v-91h788v91a61 61 0 0 1-61 60h-666a61 61 0 0 1-61-60z m455-576a30 30 0 0 0 30 30 30 30 0 0 0 30-30 30 30 0 0 0-30-30 30 30 0 0 0-30 30z m-182 0a30 30 0 0 0 30 30 30 30 0 0 0 30-30 30 30 0 0 0-30-30 30 30 0 0 0-30 30z m-182 0a30 30 0 0 0 30 30 30 30 0 0 0 30-30 30 30 0 0 0-30-30 30 30 0 0 0-30 30z m545 152a30 30 0 0 0 31 30 30 30 0 0 0 30-30 30 30 0 0 0-30-31 30 30 0 0 0-31 31z m-181 0a30 30 0 0 0 30 30 30 30 0 0 0 30-30 30 30 0 0 0-30-31 30 30 0 0 0-30 31z m-182 0a30 30 0 0 0 30 30 30 30 0 0 0 30-30 30 30 0 0 0-30-31 30 30 0 0 0-30 31z m-182 0a30 30 0 0 0 30 30 30 30 0 0 0 30-30 30 30 0 0 0-30-31 30 30 0 0 0-30 31z m545 151a30 30 0 0 0 31 30 30 30 0 0 0 30-30 30 30 0 0 0-30-30 30 30 0 0 0-31 30z m-181 0a30 30 0 0 0 30 30 30 30 0 0 0 30-30 30 30 0 0 0-30-30 30 30 0 0 0-30 30z m-182 0a30 30 0 0 0 30 30 30 30 0 0 0 30-30 30 30 0 0 0-30-30 30 30 0 0 0-30 30z m-182 0a30 30 0 0 0 30 30 30 30 0 0 0 30-30 30 30 0 0 0-30-30 30 30 0 0 0-30 30z" horiz-adv-x="970" />

<glyph glyph-name="camera" unicode="&#xe80b;" d="M141-25a125 125 0 0 0-125 125v500a125 125 0 0 0 125 125h750a125 125 0 0 0 125-125v-500a125 125 0 0 0-125-125z m-63 625v-500a63 63 0 0 1 63-62h750a63 63 0 0 1 62 62v500a63 63 0 0 1-62 63h-750a63 63 0 0 1-63-63z m344-250a219 219 0 1 0 219-219 219 219 0 0 0-219 219z m62 0a156 156 0 1 1 157 156 157 157 0 0 1-157-156z m-281 156a31 31 0 0 0 0 63h125a31 31 0 0 0 0-63z" horiz-adv-x="1031" />

<glyph glyph-name="carat-down" unicode="&#xe80c;" d="M500 100a31 31 0 0 0-22 9l-438 438a31 31 0 0 0 45 44l415-416 415 416a31 31 0 0 0 45-44l-438-438a31 31 0 0 0-22-9z" horiz-adv-x="1000" />

<glyph glyph-name="carat-left" unicode="&#xe80d;" d="M719-119a31 31 0 0 0-22 9l-438 438a31 31 0 0 0 0 44l438 438a31 31 0 0 0 44-45l-416-415 416-415a31 31 0 0 0-22-54z" horiz-adv-x="1000" />

<glyph glyph-name="carat-right" unicode="&#xe80e;" d="M281-119a31 31 0 0 0-22 54l416 415-416 415a31 31 0 0 0 44 45l438-438a31 31 0 0 0 0-44l-438-438a31 31 0 0 0-22-9z" horiz-adv-x="1000" />

<glyph glyph-name="check" unicode="&#xe80f;" d="M47 69a31 31 0 0 0-31 31v500a31 31 0 0 0 31 31h937a31 31 0 0 0 32-31v-500a31 31 0 0 0-32-31z m31 62h875v438h-875z m759 72l-40 40-40-40a31 31 0 0 0-23-9h-93a31 31 0 0 0 0 62h80l54 54a31 31 0 0 0 44 0l63-63a31 31 0 1 0-45-44z m-665-9a31 31 0 0 0 0 62h187a31 31 0 0 0 0-62z m0 125a31 31 0 0 0 0 62h406a31 31 0 0 0 0-62z" horiz-adv-x="1031" />

<glyph glyph-name="carat-up" unicode="&#xe810;" d="M938 100a31 31 0 0 0-23 9l-415 416-415-416a31 31 0 0 0-45 0 31 31 0 0 0 0 44l438 438a31 31 0 0 0 44 0l438-438a31 31 0 0 0 0-44 31 31 0 0 0-22-9z" horiz-adv-x="1000" />

<glyph glyph-name="checkmark" unicode="&#xe811;" d="M313-25a31 31 0 0 0-23 9l-281 281a31 31 0 0 0 44 45l260-260 634 635a31 31 0 1 0 44-45l-656-656a31 31 0 0 0-22-9z" horiz-adv-x="1000" />

<glyph glyph-name="close" unicode="&#xe812;" d="M544 350l353 353a31 31 0 0 1 0 44 31 31 0 0 1-44 0l-353-353-353 353a31 31 0 0 1-44 0 31 31 0 0 1 0-44l353-353-353-353a31 31 0 1 1 44-44l353 353 353-353a31 31 0 1 1 44 44z" horiz-adv-x="1000" />

<glyph glyph-name="dashboard" unicode="&#xe813;" d="M875 725h-750a125 125 0 0 1-125-125v-500a125 125 0 0 1 125-125h750a125 125 0 0 1 125 125v500a125 125 0 0 1-125 125z m63-125v-219h-407v282h344a63 63 0 0 0 63-63z m-875-500v500a63 63 0 0 0 62 63h344v-625h-344a63 63 0 0 0-62 62z m812-62h-344v281h407v-219a63 63 0 0 0-63-62z" horiz-adv-x="1000" />

<glyph glyph-name="documents" unicode="&#xe814;" d="M152-135a30 30 0 0 0-31 30v910a30 30 0 0 0 31 30h423a30 30 0 0 0 6-1h0l1 0a30 30 0 0 0 15-8l243-242 0-1a30 30 0 0 0 7-10l0 0 0-1 0 0h0a30 30 0 0 0 1-11v-666a30 30 0 0 0-30-30z m30 61h606v606h-212a30 30 0 0 0-31 30v212h-363z m424 666h139l-139 139z m30-515a30 30 0 0 0 0 61h31a30 30 0 0 0 0-61z m-333 0a30 30 0 0 0 0 61h212a30 30 0 0 0 0-61z m333 122a30 30 0 0 0 0 60h31a30 30 0 0 0 0-60z m-333 0a30 30 0 0 0 0 60h212a30 30 0 0 0 0-60z m333 121a30 30 0 0 0 0 60h31a30 30 0 0 0 0-60z m-333 0a30 30 0 0 0 0 60h212a30 30 0 0 0 0-60z m0 121a30 30 0 0 0 0 61h91a30 30 0 0 0 0-61z" horiz-adv-x="970" />

<glyph glyph-name="deals" unicode="&#xe815;" d="M509-126l-485 485a30 30 0 0 0-8 26l50 298a121 121 0 0 0 102 101l297 50a31 31 0 0 0 26-8l485-485a30 30 0 0 0-10-49l-291-117-116-291a30 30 0 0 0-22-18 31 31 0 0 0-6-1 30 30 0 0 0-22 9z m-332 850a61 61 0 0 1-51-51l-48-282 441-442 105 261a30 30 0 0 0 16 17l261 104-442 441z m211-517a30 30 0 0 0 0 43l212 212a30 30 0 0 0 43-42l-212-213a30 30 0 0 0-43 0z m-91 91a30 30 0 0 0 0 43l212 212a30 30 0 0 0 43-43l-212-212a30 30 0 0 0-43 0z m-130 340a46 46 0 1 0 45-46 46 46 0 0 0-45 46z" horiz-adv-x="1000" />

<glyph glyph-name="download" unicode="&#xe816;" d="M125-88a31 31 0 0 0 0 63h750a31 31 0 0 0 0-63z m364 159a30 30 0 0 0-5 3 29 29 0 0 0-5 2l-250 219a31 31 0 0 0 42 47l198-173v587a31 31 0 0 0 62 0v-587l198 173a31 31 0 1 0 42-47l-250-219a29 29 0 0 0-5-3 30 30 0 0 0-4-2 30 30 0 0 0-23 0z" horiz-adv-x="1000" />

<glyph glyph-name="dollar-sign" unicode="&#xe817;" d="M455-105v91h-122a152 152 0 0 0-151 152 30 30 0 1 0 60 0 91 91 0 0 1 91-91h122v273h-122a152 152 0 0 0-151 151v91a152 152 0 0 0 151 152h122v91a30 30 0 1 0 60 0v-91h121a152 152 0 0 0 152-152 30 30 0 1 0-61 0 91 91 0 0 1-91 91h-121v-273h121a152 152 0 0 0 152-151v-91a152 152 0 0 0-152-152h-121v-91a30 30 0 1 0-60 0z m181 152a91 91 0 0 1 91 91v91a91 91 0 0 1-91 91h-121v-273z m-394 515v-91a91 91 0 0 1 91-91h122v273h-122a91 91 0 0 1-91-91z" horiz-adv-x="970" />

<glyph glyph-name="fail" unicode="&#xe818;" d="M15 350a485 485 0 0 0 485 485 485 485 0 0 0 485-485 485 485 0 0 0-485-485 485 485 0 0 0-485 485z m61 0a425 425 0 0 1 424-424 425 425 0 0 1 424 424 425 425 0 0 1-424 424 425 425 0 0 1-424-424z m584-203l-160 160-160-160a30 30 0 0 0-22-9 30 30 0 0 0-21 9 30 30 0 0 0 0 43l160 160-160 160a30 30 0 0 0 0 43 30 30 0 0 0 43 0l160-160 160 160a30 30 0 0 0 43 0 30 30 0 0 0 0-43l-160-160 160-160a30 30 0 0 0 0-43 30 30 0 0 0-21-9 30 30 0 0 0-22 9z" horiz-adv-x="1000" />

<glyph glyph-name="hamburger" unicode="&#xe819;" d="M47-25a31 31 0 0 0-31 31 31 31 0 0 0 31 32h937a31 31 0 0 0 32-32 31 31 0 0 0-32-31z m0 344a31 31 0 0 0-31 31 31 31 0 0 0 31 31h937a31 31 0 0 0 32-31 31 31 0 0 0-32-31z m0 344a31 31 0 0 0-31 31 31 31 0 0 0 31 31h937a31 31 0 0 0 32-31 31 31 0 0 0-32-31z" horiz-adv-x="1031" />

<glyph glyph-name="edit" unicode="&#xe81a;" d="M46-135h-1a30 30 0 0 0-30 27v1c0 1 0 1 0 2h0c0 0 0 1 0 1h0c0 0 0 1 0 1v0a30 30 0 0 0 3 12l121 271a30 30 0 0 0 6 10l531 530 0 0 106 106a30 30 0 0 0 21 9 182 182 0 0 0 182-182 30 30 0 0 0-9-21l-106-106 0 0-530-531a31 31 0 0 0-9-6l-143-63h494a30 30 0 1 0 0-61z m146 286l-87-196 196 87 516 516a121 121 0 0 1-109 109z m567 567a182 182 0 0 0 109-109l56 56a121 121 0 0 1-109 109z" horiz-adv-x="1000" />

<glyph glyph-name="help" unicode="&#xe81b;" d="M15 350a485 485 0 0 0 485 485 485 485 0 0 0 485-485 485 485 0 0 0-485-485 485 485 0 0 0-485 485z m61 0a425 425 0 0 1 424-424 425 425 0 0 1 424 424 425 425 0 0 1-424 424 425 425 0 0 1-424-424z m394-303a30 30 0 0 0 30 30 30 30 0 0 0 30-30 30 30 0 0 0-30-30 30 30 0 0 0-30 30z m0 121v121a30 30 0 0 0 30 31 152 152 0 0 1 152 151 152 152 0 0 1-152 152 152 152 0 0 1-151-152 30 30 0 0 0-31-30 30 30 0 0 0-30 30 212 212 0 0 0 212 212 212 212 0 0 0 212-212 213 213 0 0 0-182-210v-93a30 30 0 0 0-30-30 30 30 0 0 0-30 30z" horiz-adv-x="1000" />

<glyph glyph-name="home" unicode="&#xe81c;" d="M906-88h-281a31 31 0 0 0-31 32v281h-188v-281a31 31 0 0 0-31-32h-281a31 31 0 0 0-31 32v562a31 31 0 0 0 14 27l407 250a31 31 0 0 0 32 0l407-250a31 31 0 0 0 15-27v-562a31 31 0 0 0-32-32z m-250 63h219v514l-375 231-375-231v-514h219v281a31 31 0 0 0 31 32h250a31 31 0 0 0 31-32z" horiz-adv-x="1000" />

<glyph glyph-name="hide" unicode="&#xe81d;" d="M869-47l-99 99a460 460 0 0 0-254-77c-329 0-491 347-497 362a31 31 0 0 0 0 26 762 762 0 0 0 192 248l-92 92a31 31 0 0 0 0 44 31 31 0 0 0 44 0l99-99a460 460 0 0 0 254 77c329 0 490-347 497-362a31 31 0 0 0 0-26 761 761 0 0 0-192-247l92-93a31 31 0 0 0 0-44 31 31 0 0 0-22-9 31 31 0 0 0-22 9z m-787 397c32-61 179-312 434-312a393 393 0 0 1 208 60l-77 77a218 218 0 0 0-131-44 219 219 0 0 0-219 219 218 218 0 0 0 44 131l-85 84a715 715 0 0 1-174-215z m693-215a715 715 0 0 1 175 215c-32 61-179 313-434 313a393 393 0 0 1-208-61l77-77a218 218 0 0 0 131 44 219 219 0 0 0 219-219 218 218 0 0 0-44-131z m-415 215a156 156 0 0 1 156-156 155 155 0 0 1 86 26l-216 216a155 155 0 0 1-26-86z m286-86a155 155 0 0 1 26 86 156 156 0 0 1-156 156 155 155 0 0 1-86-26z" horiz-adv-x="1032" />

<glyph glyph-name="info" unicode="&#xe81e;" d="M15 350a485 485 0 0 0 485 485 485 485 0 0 0 485-485 485 485 0 0 0-485-485 485 485 0 0 0-485 485z m61 0a425 425 0 0 1 424-424 425 425 0 0 1 424 424 425 425 0 0 1-424 424 425 425 0 0 1-424-424z m394-182v243a30 30 0 0 0 30 30 30 30 0 0 0 30-30v-243a30 30 0 0 0-30-30 30 30 0 0 0-30 30z m0 364a30 30 0 0 0 30 30 30 30 0 0 0 30-30 30 30 0 0 0-30-30 30 30 0 0 0-30 30z" horiz-adv-x="1000" />

<glyph glyph-name="list" unicode="&#xe81f;" d="M250-56a31 31 0 0 0 0 62h625a31 31 0 0 0 0-62z m-156 31a31 31 0 1 0 31-31 31 31 0 0 0-31 31z m156 219a31 31 0 0 0 0 62h625a31 31 0 0 0 0-62z m-156 31a31 31 0 1 0 31-31 31 31 0 0 0-31 31z m156 219a31 31 0 0 0 0 62h625a31 31 0 0 0 0-62z m-156 31a31 31 0 1 0 31-31 31 31 0 0 0-31 31z m156 219a31 31 0 0 0 0 62h625a31 31 0 0 0 0-62z m-156 31a31 31 0 1 0 31-31 31 31 0 0 0-31 31z" horiz-adv-x="1000" />

<glyph glyph-name="location" unicode="&#xe820;" d="M478-141c-14 15-353 356-353 616a375 375 0 1 0 750 0c0-260-338-601-353-616a31 31 0 0 0-44 0z m-290 616c0-198 237-469 312-549 75 80 313 351 313 549a313 313 0 0 1-625 0z m125 0a188 188 0 1 0 187-187 188 188 0 0 0-187 187z" horiz-adv-x="1000" />

<glyph glyph-name="lock" unicode="&#xe821;" d="M212-135a91 91 0 0 0-91 91v455a91 91 0 0 0 91 91h30v90a243 243 0 0 0 243 243 243 243 0 0 0 242-243v-90h31a91 91 0 0 0 91-91v-455a91 91 0 0 0-91-91z m-30 546v-455a30 30 0 0 1 30-30h546a30 30 0 0 1 30 30v455a30 30 0 0 1-30 30h-546a30 30 0 0 1-30-30z m121 181v-90h364v90a182 182 0 0 1-182 182 182 182 0 0 1-182-182z m152-515v212a30 30 0 0 0 30 31 30 30 0 0 0 30-31v-212a30 30 0 0 0-30-30 30 30 0 0 0-30 30z" horiz-adv-x="970" />

<glyph glyph-name="messages" unicode="&#xe822;" d="M141-25a125 125 0 0 0-125 125v500a125 125 0 0 0 125 125h750a125 125 0 0 0 125-125v-500a125 125 0 0 0-125-125z m-63 125a63 63 0 0 1 63-62h750a63 63 0 0 1 62 62v385l-378-202a125 125 0 0 0-118 0l-379 202z m408 239a62 62 0 0 1 59 0l408 217v44a63 63 0 0 1-62 63h-750a63 63 0 0 1-63-63v-44z" horiz-adv-x="1031" />

<glyph glyph-name="new-tab" unicode="&#xe823;" d="M188-88a125 125 0 0 0-125 126v625a125 125 0 0 0 125 125h125a31 31 0 0 0 0-63h-125a63 63 0 0 1-63-62v-625a63 63 0 0 1 63-63h625a63 63 0 0 1 62 63v125a31 31 0 1 0 63 0v-125a125 125 0 0 0-125-126z m290 416a31 31 0 0 0 0 44l353 353h-268a31 31 0 1 0 0 63h343a31 31 0 0 0 32-32v-343a31 31 0 1 0-63 0v268l-353-353a31 31 0 0 0-44 0z" horiz-adv-x="1000" />

<glyph glyph-name="notification" unicode="&#xe824;" d="M364-14h-303a30 30 0 0 0-28 19 30 30 0 0 0 6 33c31 31 113 127 113 191 0 170 34 442 242 503v12a91 91 0 0 0 91 91 91 91 0 0 0 91-91v-12c208-61 242-333 242-503 0-64 81-160 113-191a30 30 0 0 0 6-33 30 30 0 0 0-28-19h-303a121 121 0 0 0-121-121 121 121 0 0 0-121 121z m121-60a61 61 0 0 1 61 60h-122a61 61 0 0 1 61-60z m-273 303c0-64-46-135-84-182h714c-38 47-84 118-84 182 0 207-48 454-273 454s-273-247-273-454z m303 514v1a30 30 0 0 1-30 30 30 30 0 0 1-30-30v-1c9 0 19 1 30 1s20-1 30-1z m-182-544a30 30 0 0 0-30 30 30 30 0 0 0 30 30h303a30 30 0 0 0 31-30 30 30 0 0 0-31-30z" horiz-adv-x="970" />

<glyph glyph-name="plus" unicode="&#xe825;" d="M969 381h-438v438a31 31 0 0 1-31 31 31 31 0 0 1-31-31v-438h-438a31 31 0 0 1-31-31 31 31 0 0 1 31-31h438v-438a31 31 0 0 1 31-31 31 31 0 0 1 31 31v438h438a31 31 0 0 1 31 31 31 31 0 0 1-31 31z" horiz-adv-x="1000" />

<glyph glyph-name="profile" unicode="&#xe826;" d="M682-115a500 500 0 0 1 318 465 501 501 0 0 1-500 500 501 501 0 0 1-500-500 500 500 0 0 1 318-465 453 453 0 0 1 128-32l6-1c16-1 32-2 48-2s32 1 48 2l6 1a453 453 0 0 1 128 32z m-86 38c-4 0-7-1-11-2q-18-4-36-6c-3 0-6 0-9-1-13-1-27-2-40-2s-27 1-40 2c-3 1-6 1-9 1q-18 2-36 6c-4 1-7 2-11 2-7 2-14 4-21 6-96 27-164 88-164 155 0 94 129 172 281 172s281-78 281-172c0-67-68-128-164-155-7-2-14-4-21-6z m-221 521a125 125 0 0 0 125 125 125 125 0 0 0 125-125 125 125 0 0 0-125-125 125 125 0 0 0-125 125z m-312-94a438 438 0 0 0 437 438 438 438 0 0 0 438-438 435 435 0 0 0-95-270c0 1 1 3 1 4 0 102-90 186-220 219a187 187 0 0 1 64 141 188 188 0 0 1-188 187 188 188 0 0 1-187-187 187 187 0 0 1 63-141c-130-33-220-117-220-219 0-1 1-3 1-4a435 435 0 0 0-94 270z" horiz-adv-x="1000" />

<glyph glyph-name="refresh" unicode="&#xe827;" d="M500 850a496 496 0 0 1-325-121l-19 96a31 31 0 0 1-62-12l32-157v0c0 0 0 0 0-1a31 31 0 0 1 4-9 26 26 0 0 1 2-3 30 30 0 0 1 6-5 31 31 0 0 1 3-2 33 33 0 0 1 7-3c1 0 1-1 2-1l156-31a30 30 0 0 1 7-1 31 31 0 0 1 6 62l-103 20a437 437 0 1 0-153-332 31 31 0 0 1-63 0 500 500 0 1 1 500 500z" horiz-adv-x="1000" />

<glyph glyph-name="search" unicode="&#xe828;" d="M960-65l-294 294a360 360 0 1 1-44-45l293-294a31 31 0 1 1 45 45z m-866 524a297 297 0 1 0 297-296 297 297 0 0 0-297 296z" horiz-adv-x="1000" />

<glyph glyph-name="more-horiz" unicode="&#xe829;" d="M125 413a63 63 0 0 0 63-63 63 63 0 0 0-63-62 63 63 0 0 0-62 62 63 63 0 0 0 62 63z m375 0a63 63 0 0 0 63-63 63 63 0 0 0-63-62 63 63 0 0 0-62 62 63 63 0 0 0 62 63z m375 0a63 63 0 0 0 63-63 63 63 0 0 0-63-62 63 63 0 0 0-62 62 63 63 0 0 0 62 63z" horiz-adv-x="1000" />

<glyph glyph-name="security" unicode="&#xe82a;" d="M473-132c-17 7-412 187-412 421v394a30 30 0 0 0 21 29l394 122a31 31 0 0 0 18 0l394-122a30 30 0 0 0 21-29v-394c0-234-395-414-412-421a30 30 0 0 0-24 0z m-352 793v-372c0-156 252-307 364-360 64 31 363 185 363 360v372l-363 112z m152-190a30 30 0 1 0 0 61h424a30 30 0 1 0 0-61z" horiz-adv-x="970" />

<glyph glyph-name="settings" unicode="&#xe82b;" d="M439-135a61 61 0 0 0-60 61v50a392 392 0 0 0-58 23l-35-35a61 61 0 0 0-86 0l-86 86a61 61 0 0 0 0 86l36 35a395 395 0 0 0-24 58h-50a61 61 0 0 0-61 60v122a61 61 0 0 0 61 60h50a395 395 0 0 0 24 58l-36 35a61 61 0 0 0 0 86l86 86a61 61 0 0 0 86 0l35-35a392 392 0 0 0 58 24v49a61 61 0 0 0 60 61h122a61 61 0 0 0 60-61v-49a392 392 0 0 0 58-24l35 35a61 61 0 0 0 86 0l86-86a61 61 0 0 0 0-86l-35-35a389 389 0 0 0 24-58h49a61 61 0 0 0 61-60v-122a61 61 0 0 0-61-60h-49a389 389 0 0 0-24-58l35-35a61 61 0 0 0 0-86l-86-86a61 61 0 0 0-86 0l-35 35a392 392 0 0 0-58-24v-49a61 61 0 0 0-60-61z m-108 198a331 331 0 0 1 86-35l22-6v-96h122v96l22 6a330 330 0 0 1 86 35l20 12 68-68 86 86-68 68 12 20a331 331 0 0 1 35 86l6 22h96v122h-96l-6 22a331 331 0 0 1-35 86l-12 20 68 68-86 86-68-68-20 12a330 330 0 0 1-86 35l-22 6v96h-122v-96l-22-6a330 330 0 0 1-86-35l-20-12-68 68-86-86 68-68-12-20a330 330 0 0 1-35-86l-6-22h-96v-122h96l6-22a330 330 0 0 1 35-86l12-20-68-68 86-86 68 68z m-73 287a242 242 0 1 0 242-242 243 243 0 0 0-242 242z m60 0a182 182 0 1 1 182 182 182 182 0 0 1-182-182z" horiz-adv-x="1000" />

<glyph glyph-name="show" unicode="&#xe82c;" d="M19 337a31 31 0 0 0 0 26c6 15 168 362 497 362s490-347 497-362a31 31 0 0 0 0-26c-7-15-168-362-497-362s-491 347-497 362z m63 13c32-61 179-312 434-312s402 251 434 312c-32 61-179 313-434 313s-402-252-434-313z m215 0a219 219 0 0 0 219 219 219 219 0 0 0 219-219 219 219 0 0 0-219-219 219 219 0 0 0-219 219z m63 0a156 156 0 0 1 156-156 156 156 0 0 1 156 156 156 156 0 0 1-156 156 156 156 0 0 1-156-156z" horiz-adv-x="1032" />

<glyph glyph-name="signout" unicode="&#xe82d;" d="M303-135a121 121 0 0 0-121 121 30 30 0 0 0 60 0 61 61 0 0 1 61-60h424a61 61 0 0 1 61 60v728a61 61 0 0 1-61 60h-424a61 61 0 0 1-61-60 30 30 0 0 0-60 0 121 121 0 0 0 121 121h424a121 121 0 0 0 122-121v-728a121 121 0 0 0-122-121z m100 252a30 30 0 0 0 0 42l160 161h-411a30 30 0 0 0 0 60h411l-160 161a30 30 0 1 0 43 43l212-213a30 30 0 0 0 0-42l-212-213a30 30 0 0 0-43 0z" horiz-adv-x="970" />

<glyph glyph-name="more-vert" unicode="&#xe82e;" d="M438-25a63 63 0 0 0 62 63 63 63 0 0 0 63-63 63 63 0 0 0-63-63 63 63 0 0 0-62 63z m0 375a63 63 0 0 0 62 63 63 63 0 0 0 63-63 63 63 0 0 0-63-62 63 63 0 0 0-62 62z m0 375a63 63 0 0 0 62 63 63 63 0 0 0 63-63 63 63 0 0 0-63-62 63 63 0 0 0-62 62z" horiz-adv-x="1000" />

<glyph glyph-name="sort" unicode="&#xe82f;" d="M464-126l-304 303a30 30 0 0 0 43 43l282-282 282 282a30 30 0 0 0 42-43l-303-303a30 30 0 0 0-43 0z m303 606l-282 282-282-282a30 30 0 0 0-43 43l304 303a30 30 0 0 0 42 0l303-303a30 30 0 0 0-42-43z" horiz-adv-x="970" />

<glyph glyph-name="support" unicode="&#xe830;" d="M455-135a121 121 0 1 0 115 83 304 304 0 0 1 186 251h-29a30 30 0 0 0-30 30v273a30 30 0 0 0 30 30h25a303 303 0 0 1-600-61v-60h30a30 30 0 0 0 30-31v-91a30 30 0 0 0-60 0v61h-31a30 30 0 0 0-30 30v91a364 364 0 0 0 723 57 91 91 0 0 0 65-87v-152a91 91 0 0 0-62-86 364 364 0 0 0-362-338z m-61 121a61 61 0 1 1 61 61 61 61 0 0 1-61-61z m364 273h30a30 30 0 0 1 30 30v152a30 30 0 0 1-30 30 28 28 0 0 0-4 0h-26z" horiz-adv-x="970" />

<glyph glyph-name="transfers" unicode="&#xe831;" d="M744-16a31 31 0 0 0 0 44l165 166h-362a31 31 0 0 0-31 31 31 31 0 0 0 31 31h362l-165 166a31 31 0 0 0 0 44 31 31 0 0 0 44 0l219-219a31 31 0 0 0 6-10 31 31 0 0 0 0-24 31 31 0 0 0-6-10l-219-219a31 31 0 0 0-22-9 31 31 0 0 0-22 9z m-500 250l-219 219a31 31 0 0 0-7 10 31 31 0 0 0 0 24 31 31 0 0 0 7 10l219 219a31 31 0 0 0 44 0 31 31 0 0 0 0-44l-166-166h363a31 31 0 0 0 31-31 31 31 0 0 0-31-31h-363l166-166a31 31 0 0 0 0-44 31 31 0 0 0-22-9 31 31 0 0 0-22 9z" horiz-adv-x="1031" />

<glyph glyph-name="unlock" unicode="&#xe832;" d="M212-135a91 91 0 0 0-91 91v455a91 91 0 0 0 91 91h30v90a242 242 0 0 0 442 139 30 30 0 0 0-50-35 182 182 0 0 1-331-104v-90h455a91 91 0 0 0 91-91v-455a91 91 0 0 0-91-91z m-30 546v-455a30 30 0 0 1 30-30h546a30 30 0 0 1 30 30v455a30 30 0 0 1-30 30h-546a30 30 0 0 1-30-30z m197-258a30 30 0 1 0 0 61h212a30 30 0 0 0 0-61z" horiz-adv-x="970" />

<glyph glyph-name="upload" unicode="&#xe833;" d="M469-56v587l-198-173a31 31 0 0 0-42 47l250 219a31 31 0 0 0 5 3 30 30 0 0 0 5 2 31 31 0 0 0 23 0 30 30 0 0 0 4-2 29 29 0 0 0 5-3l250-219a31 31 0 0 0-42-47l-198 173v-587a31 31 0 0 0-62 0z m-344 781a31 31 0 0 0 0 63h750a31 31 0 0 0 0-63z" horiz-adv-x="1000" />

<glyph glyph-name="planning" unicode="&#xe834;" d="M676-126l-122 121a30 30 0 1 0 43 43l100-100 221 221a30 30 0 1 0 43-42l-243-243a30 30 0 0 0-42 0z m-524-9a30 30 0 0 0-31 30v819a30 30 0 0 0 31 30h216a121 121 0 0 0 234 0h216a30 30 0 0 0 31-30v-485a30 30 0 1 0-61 0v454h-186a121 121 0 0 0-234 0h-186v-757h303a30 30 0 1 0 0-61z m272 849a61 61 0 1 1 61 60 61 61 0 0 1-61-60z m-121-576a30 30 0 0 0 0 61h182a30 30 0 1 0 0-61z m0 151a30 30 0 0 0 0 61h364a30 30 0 0 0 0-61z m0 152a30 30 0 0 0 0 61h364a30 30 0 0 0 0-61z" horiz-adv-x="985" />

<glyph glyph-name="success" unicode="&#xe835;" d="M15 350a485 485 0 0 0 485 485 485 485 0 0 0 485-485 485 485 0 0 0-485-485 485 485 0 0 0-485 485z m61 0a425 425 0 0 1 424-424 425 425 0 0 1 424 424 425 425 0 0 1-424 424 425 425 0 0 1-424-424z m312-173l-121 121a30 30 0 0 0 0 43 30 30 0 0 0 42 0l100-100 282 282a30 30 0 0 0 43 0 30 30 0 0 0 0-43l-303-303a30 30 0 0 0-22-9 30 30 0 0 0-21 9z" horiz-adv-x="1000" />

<glyph glyph-name="warning" unicode="&#xe836;" d="M47-86a31 31 0 0 0-27 46l469 813a33 33 0 0 0 54 0l469-813a31 31 0 0 0-27-46z m54 62h830l-415 719z m384 125a31 31 0 1 0 31-31 31 31 0 0 0-31 31z m0 125v219a31 31 0 0 0 62 0v-219a31 31 0 0 0-62 0z" horiz-adv-x="1032" />
</font>
</defs>
</svg>
