<?xml version="1.0" encoding="utf-8"?>
<!-- Generator: Adobe Illustrator 27.3.1, SVG Export Plug-In . SVG Version: 6.00 Build 0)  -->
<svg version="1.1" id="one-savings" xmlns="http://www.w3.org/2000/svg" xmlns:xlink="http://www.w3.org/1999/xlink" x="0px"
	 y="0px" viewBox="0 0 48 48" style="enable-background:new 0 0 48 48;" xml:space="preserve">
<style type="text/css">
	.st0{fill:none;stroke:#2E1A47;stroke-width:2;stroke-miterlimit:10;}
	.st1{fill:none;stroke:#2E1A47;stroke-width:2;stroke-linecap:round;stroke-miterlimit:10;}
</style>
<path class="st0" d="M41.3,10.2H45c1.1,0,2,0.9,2,2v7.2"/>
<path class="st0" d="M47,40.1V45c0,1.1-0.9,2-2,2H3c-1.1,0-2-0.9-2-2V12.2c0-1.1,0.9-2,2-2h10.7"/>
<line class="st1" x1="7.9" y1="14.8" x2="47" y2="14.8"/>
<polyline class="st0" points="41.3,14.8 41.3,1 18.2,1 18.2,14.8 "/>
<line class="st0" x1="13.7" y1="14.8" x2="13.7" y2="3.9"/>
<path class="st0" d="M24,1v1.2c0,2.5-2.1,4.6-4.6,4.6h-1.2"/>
<path class="st0" d="M35.6,1v1.2c0,2.5,2.1,4.6,4.6,4.6h1.2"/>
<path class="st0" d="M47,34.3H34.4c-2.5,0-4.6-2.1-4.6-4.6l0,0c0-2.5,2.1-4.6,4.6-4.6H47V34.3z"/>
</svg>
