<svg id="youtube-solid.svg" xmlns="http://www.w3.org/2000/svg" width="24" height="24" viewBox="0 0 24 24">
  <path id="Path_12" data-name="Path 12" d="M23.76,7.551a9.444,9.444,0,0,0-.954-3.387,2.983,2.983,0,0,0-2.4-1.446c-2.8-.288-6.756-.335-8-.343l-.4,0s-5.038,0-8.4.345a2.971,2.971,0,0,0-2.4,1.446A9.445,9.445,0,0,0,.24,7.551S0,10.313,0,13.074v2.589c0,2.762.24,5.523.24,5.523a9.445,9.445,0,0,0,.954,3.387A3.456,3.456,0,0,0,3.84,26.032c1.715.235,6.869.324,7.958.339l.2,0s5.33-.041,8.4-.356a2.971,2.971,0,0,0,2.4-1.446,9.455,9.455,0,0,0,.954-3.387s.24-2.762.24-5.523V13.074C24,10.313,23.76,7.551,23.76,7.551ZM9.522,18.8l0-9.586,6.485,4.811Z" transform="translate(0 -2.373)" fill="#ffffff"/>
</svg>
